<?xml version="1.0" encoding="utf-8" standalone="no"?>
<!DOCTYPE svg PUBLIC "-//W3C//DTD SVG 1.1//EN"
  "http://www.w3.org/Graphics/SVG/1.1/DTD/svg11.dtd">
<!-- Created with matplotlib (https://matplotlib.org/) -->
<svg height="791.615pt" version="1.1" viewBox="0 0 723.845313 791.615" width="723.845313pt" xmlns="http://www.w3.org/2000/svg" xmlns:xlink="http://www.w3.org/1999/xlink">
 <metadata>
  <rdf:RDF xmlns:cc="http://creativecommons.org/ns#" xmlns:dc="http://purl.org/dc/elements/1.1/" xmlns:rdf="http://www.w3.org/1999/02/22-rdf-syntax-ns#">
   <cc:Work>
    <dc:type rdf:resource="http://purl.org/dc/dcmitype/StillImage"/>
    <dc:date>2020-11-23T16:15:57.066997</dc:date>
    <dc:format>image/svg+xml</dc:format>
    <dc:creator>
     <cc:Agent>
      <dc:title>Matplotlib v3.3.2, https://matplotlib.org/</dc:title>
     </cc:Agent>
    </dc:creator>
   </cc:Work>
  </rdf:RDF>
 </metadata>
 <defs>
  <style type="text/css">*{stroke-linecap:butt;stroke-linejoin:round;}</style>
 </defs>
 <g id="figure_1">
  <g id="patch_1">
   <path d="M 0 791.615 
L 723.845313 791.615 
L 723.845313 0 
L 0 0 
z
" style="fill:#ffffff;"/>
  </g>
  <g id="axes_1">
   <g id="patch_2">
    <path d="M 47.045313 231.035294 
L 716.645313 231.035294 
L 716.645313 7.2 
L 47.045313 7.2 
z
" style="fill:#ffffff;"/>
   </g>
   <g id="matplotlib.axis_1">
    <g id="xtick_1">
     <g id="text_1">
      <!-- QMS95041 -->
      <g style="fill:#262626;" transform="translate(55.233906 245.193107)scale(0.1 -0.1)">
       <defs>
        <path d="M 61.96875 7.671875 
Q 68.5625 3.125 74.125 1.03125 
L 71.34375 -5.5625 
Q 63.625 -2.78125 55.953125 3.21875 
Q 48 -1.21875 38.375 -1.21875 
Q 28.65625 -1.21875 20.75 3.46875 
Q 12.84375 8.15625 8.5625 16.640625 
Q 4.296875 25.140625 4.296875 35.796875 
Q 4.296875 46.390625 8.59375 55.078125 
Q 12.890625 63.765625 20.828125 68.3125 
Q 28.765625 72.859375 38.578125 72.859375 
Q 48.484375 72.859375 56.4375 68.140625 
Q 64.40625 63.421875 68.578125 54.953125 
Q 72.75 46.484375 72.75 35.84375 
Q 72.75 27 70.0625 19.9375 
Q 67.390625 12.890625 61.96875 7.671875 
z
M 41.109375 19.78125 
Q 49.3125 17.484375 54.640625 12.9375 
Q 62.984375 20.5625 62.984375 35.84375 
Q 62.984375 44.53125 60.03125 51.015625 
Q 57.078125 57.515625 51.390625 61.109375 
Q 45.703125 64.703125 38.625 64.703125 
Q 28.03125 64.703125 21.046875 57.453125 
Q 14.0625 50.203125 14.0625 35.796875 
Q 14.0625 21.828125 20.96875 14.359375 
Q 27.875 6.890625 38.625 6.890625 
Q 43.703125 6.890625 48.1875 8.796875 
Q 43.75 11.671875 38.8125 12.890625 
z
" id="ArialMT-81"/>
        <path d="M 7.421875 0 
L 7.421875 71.578125 
L 21.6875 71.578125 
L 38.625 20.90625 
Q 40.96875 13.8125 42.046875 10.296875 
Q 43.265625 14.203125 45.84375 21.78125 
L 62.984375 71.578125 
L 75.734375 71.578125 
L 75.734375 0 
L 66.609375 0 
L 66.609375 59.90625 
L 45.796875 0 
L 37.25 0 
L 16.546875 60.9375 
L 16.546875 0 
z
" id="ArialMT-77"/>
        <path d="M 4.5 23 
L 13.421875 23.78125 
Q 14.0625 18.40625 16.375 14.96875 
Q 18.703125 11.53125 23.578125 9.40625 
Q 28.46875 7.28125 34.578125 7.28125 
Q 39.984375 7.28125 44.140625 8.890625 
Q 48.296875 10.5 50.3125 13.296875 
Q 52.34375 16.109375 52.34375 19.4375 
Q 52.34375 22.796875 50.390625 25.3125 
Q 48.4375 27.828125 43.953125 29.546875 
Q 41.0625 30.671875 31.203125 33.03125 
Q 21.34375 35.40625 17.390625 37.5 
Q 12.25 40.1875 9.734375 44.15625 
Q 7.234375 48.140625 7.234375 53.078125 
Q 7.234375 58.5 10.296875 63.203125 
Q 13.375 67.921875 19.28125 70.359375 
Q 25.203125 72.796875 32.421875 72.796875 
Q 40.375 72.796875 46.453125 70.234375 
Q 52.546875 67.671875 55.8125 62.6875 
Q 59.078125 57.71875 59.328125 51.421875 
L 50.25 50.734375 
Q 49.515625 57.515625 45.28125 60.984375 
Q 41.0625 64.453125 32.8125 64.453125 
Q 24.21875 64.453125 20.28125 61.296875 
Q 16.359375 58.15625 16.359375 53.71875 
Q 16.359375 49.859375 19.140625 47.359375 
Q 21.875 44.875 33.421875 42.265625 
Q 44.96875 39.65625 49.265625 37.703125 
Q 55.515625 34.8125 58.484375 30.390625 
Q 61.46875 25.984375 61.46875 20.21875 
Q 61.46875 14.5 58.203125 9.4375 
Q 54.9375 4.390625 48.796875 1.578125 
Q 42.671875 -1.21875 35.015625 -1.21875 
Q 25.296875 -1.21875 18.71875 1.609375 
Q 12.15625 4.4375 8.421875 10.125 
Q 4.6875 15.828125 4.5 23 
z
" id="ArialMT-83"/>
        <path d="M 5.46875 16.546875 
L 13.921875 17.328125 
Q 14.984375 11.375 18.015625 8.6875 
Q 21.046875 6 25.78125 6 
Q 29.828125 6 32.875 7.859375 
Q 35.9375 9.71875 37.890625 12.8125 
Q 39.84375 15.921875 41.15625 21.1875 
Q 42.484375 26.46875 42.484375 31.9375 
Q 42.484375 32.515625 42.4375 33.6875 
Q 39.796875 29.5 35.234375 26.875 
Q 30.671875 24.265625 25.34375 24.265625 
Q 16.453125 24.265625 10.296875 30.703125 
Q 4.15625 37.15625 4.15625 47.703125 
Q 4.15625 58.59375 10.578125 65.234375 
Q 17 71.875 26.65625 71.875 
Q 33.640625 71.875 39.421875 68.109375 
Q 45.21875 64.359375 48.21875 57.390625 
Q 51.21875 50.4375 51.21875 37.25 
Q 51.21875 23.53125 48.234375 15.40625 
Q 45.265625 7.28125 39.375 3.03125 
Q 33.5 -1.21875 25.59375 -1.21875 
Q 17.1875 -1.21875 11.859375 3.4375 
Q 6.546875 8.109375 5.46875 16.546875 
z
M 41.453125 48.140625 
Q 41.453125 55.71875 37.421875 60.15625 
Q 33.40625 64.59375 27.734375 64.59375 
Q 21.875 64.59375 17.53125 59.8125 
Q 13.1875 55.03125 13.1875 47.40625 
Q 13.1875 40.578125 17.3125 36.296875 
Q 21.4375 32.03125 27.484375 32.03125 
Q 33.59375 32.03125 37.515625 36.296875 
Q 41.453125 40.578125 41.453125 48.140625 
z
" id="ArialMT-57"/>
        <path d="M 4.15625 18.75 
L 13.375 19.53125 
Q 14.40625 12.796875 18.140625 9.390625 
Q 21.875 6 27.15625 6 
Q 33.5 6 37.890625 10.78125 
Q 42.28125 15.578125 42.28125 23.484375 
Q 42.28125 31 38.0625 35.34375 
Q 33.84375 39.703125 27 39.703125 
Q 22.75 39.703125 19.328125 37.765625 
Q 15.921875 35.84375 13.96875 32.765625 
L 5.71875 33.84375 
L 12.640625 70.609375 
L 48.25 70.609375 
L 48.25 62.203125 
L 19.671875 62.203125 
L 15.828125 42.96875 
Q 22.265625 47.46875 29.34375 47.46875 
Q 38.71875 47.46875 45.15625 40.96875 
Q 51.609375 34.46875 51.609375 24.265625 
Q 51.609375 14.546875 45.953125 7.46875 
Q 39.0625 -1.21875 27.15625 -1.21875 
Q 17.390625 -1.21875 11.203125 4.25 
Q 5.03125 9.71875 4.15625 18.75 
z
" id="ArialMT-53"/>
        <path d="M 4.15625 35.296875 
Q 4.15625 48 6.765625 55.734375 
Q 9.375 63.484375 14.515625 67.671875 
Q 19.671875 71.875 27.484375 71.875 
Q 33.25 71.875 37.59375 69.546875 
Q 41.9375 67.234375 44.765625 62.859375 
Q 47.609375 58.5 49.21875 52.21875 
Q 50.828125 45.953125 50.828125 35.296875 
Q 50.828125 22.703125 48.234375 14.96875 
Q 45.65625 7.234375 40.5 3 
Q 35.359375 -1.21875 27.484375 -1.21875 
Q 17.140625 -1.21875 11.234375 6.203125 
Q 4.15625 15.140625 4.15625 35.296875 
z
M 13.1875 35.296875 
Q 13.1875 17.671875 17.3125 11.828125 
Q 21.4375 6 27.484375 6 
Q 33.546875 6 37.671875 11.859375 
Q 41.796875 17.71875 41.796875 35.296875 
Q 41.796875 52.984375 37.671875 58.78125 
Q 33.546875 64.59375 27.390625 64.59375 
Q 21.34375 64.59375 17.71875 59.46875 
Q 13.1875 52.9375 13.1875 35.296875 
z
" id="ArialMT-48"/>
        <path d="M 32.328125 0 
L 32.328125 17.140625 
L 1.265625 17.140625 
L 1.265625 25.203125 
L 33.9375 71.578125 
L 41.109375 71.578125 
L 41.109375 25.203125 
L 50.78125 25.203125 
L 50.78125 17.140625 
L 41.109375 17.140625 
L 41.109375 0 
z
M 32.328125 25.203125 
L 32.328125 57.46875 
L 9.90625 25.203125 
z
" id="ArialMT-52"/>
        <path d="M 37.25 0 
L 28.46875 0 
L 28.46875 56 
Q 25.296875 52.984375 20.140625 49.953125 
Q 14.984375 46.921875 10.890625 45.40625 
L 10.890625 53.90625 
Q 18.265625 57.375 23.78125 62.296875 
Q 29.296875 67.234375 31.59375 71.875 
L 37.25 71.875 
z
" id="ArialMT-49"/>
       </defs>
       <use xlink:href="#ArialMT-81"/>
       <use x="77.783203" xlink:href="#ArialMT-77"/>
       <use x="161.083984" xlink:href="#ArialMT-83"/>
       <use x="227.783203" xlink:href="#ArialMT-57"/>
       <use x="283.398438" xlink:href="#ArialMT-53"/>
       <use x="339.013672" xlink:href="#ArialMT-48"/>
       <use x="394.628906" xlink:href="#ArialMT-52"/>
       <use x="450.244141" xlink:href="#ArialMT-49"/>
      </g>
     </g>
    </g>
    <g id="xtick_2">
     <g id="text_2">
      <!-- QNQ32127 -->
      <g style="fill:#262626;" transform="translate(122.193906 245.193107)scale(0.1 -0.1)">
       <defs>
        <path d="M 7.625 0 
L 7.625 71.578125 
L 17.328125 71.578125 
L 54.9375 15.375 
L 54.9375 71.578125 
L 64.015625 71.578125 
L 64.015625 0 
L 54.296875 0 
L 16.703125 56.25 
L 16.703125 0 
z
" id="ArialMT-78"/>
        <path d="M 4.203125 18.890625 
L 12.984375 20.0625 
Q 14.5 12.59375 18.140625 9.296875 
Q 21.78125 6 27 6 
Q 33.203125 6 37.46875 10.296875 
Q 41.75 14.59375 41.75 20.953125 
Q 41.75 27 37.796875 30.921875 
Q 33.84375 34.859375 27.734375 34.859375 
Q 25.25 34.859375 21.53125 33.890625 
L 22.515625 41.609375 
Q 23.390625 41.5 23.921875 41.5 
Q 29.546875 41.5 34.03125 44.421875 
Q 38.53125 47.359375 38.53125 53.46875 
Q 38.53125 58.296875 35.25 61.46875 
Q 31.984375 64.65625 26.8125 64.65625 
Q 21.6875 64.65625 18.265625 61.421875 
Q 14.84375 58.203125 13.875 51.765625 
L 5.078125 53.328125 
Q 6.6875 62.15625 12.390625 67.015625 
Q 18.109375 71.875 26.609375 71.875 
Q 32.46875 71.875 37.390625 69.359375 
Q 42.328125 66.84375 44.9375 62.5 
Q 47.5625 58.15625 47.5625 53.265625 
Q 47.5625 48.640625 45.0625 44.828125 
Q 42.578125 41.015625 37.703125 38.765625 
Q 44.046875 37.3125 47.5625 32.6875 
Q 51.078125 28.078125 51.078125 21.140625 
Q 51.078125 11.765625 44.234375 5.25 
Q 37.40625 -1.265625 26.953125 -1.265625 
Q 17.53125 -1.265625 11.296875 4.34375 
Q 5.078125 9.96875 4.203125 18.890625 
z
" id="ArialMT-51"/>
        <path d="M 50.34375 8.453125 
L 50.34375 0 
L 3.03125 0 
Q 2.9375 3.171875 4.046875 6.109375 
Q 5.859375 10.9375 9.828125 15.625 
Q 13.8125 20.3125 21.34375 26.46875 
Q 33.015625 36.03125 37.109375 41.625 
Q 41.21875 47.21875 41.21875 52.203125 
Q 41.21875 57.421875 37.46875 61 
Q 33.734375 64.59375 27.734375 64.59375 
Q 21.390625 64.59375 17.578125 60.78125 
Q 13.765625 56.984375 13.71875 50.25 
L 4.6875 51.171875 
Q 5.609375 61.28125 11.65625 66.578125 
Q 17.71875 71.875 27.9375 71.875 
Q 38.234375 71.875 44.234375 66.15625 
Q 50.25 60.453125 50.25 52 
Q 50.25 47.703125 48.484375 43.546875 
Q 46.734375 39.40625 42.65625 34.8125 
Q 38.578125 30.21875 29.109375 22.21875 
Q 21.1875 15.578125 18.9375 13.203125 
Q 16.703125 10.84375 15.234375 8.453125 
z
" id="ArialMT-50"/>
        <path d="M 4.734375 62.203125 
L 4.734375 70.65625 
L 51.078125 70.65625 
L 51.078125 63.8125 
Q 44.234375 56.546875 37.515625 44.484375 
Q 30.8125 32.421875 27.15625 19.671875 
Q 24.515625 10.6875 23.78125 0 
L 14.75 0 
Q 14.890625 8.453125 18.0625 20.40625 
Q 21.234375 32.375 27.171875 43.484375 
Q 33.109375 54.59375 39.796875 62.203125 
z
" id="ArialMT-55"/>
       </defs>
       <use xlink:href="#ArialMT-81"/>
       <use x="77.783203" xlink:href="#ArialMT-78"/>
       <use x="150" xlink:href="#ArialMT-81"/>
       <use x="227.783203" xlink:href="#ArialMT-51"/>
       <use x="283.398438" xlink:href="#ArialMT-50"/>
       <use x="339.013672" xlink:href="#ArialMT-49"/>
       <use x="394.628906" xlink:href="#ArialMT-50"/>
       <use x="450.244141" xlink:href="#ArialMT-55"/>
      </g>
     </g>
    </g>
    <g id="xtick_3">
     <g id="text_3">
      <!-- QKS67443 -->
      <g style="fill:#262626;" transform="translate(189.983594 245.193107)scale(0.1 -0.1)">
       <defs>
        <path d="M 7.328125 0 
L 7.328125 71.578125 
L 16.796875 71.578125 
L 16.796875 36.078125 
L 52.34375 71.578125 
L 65.1875 71.578125 
L 35.15625 42.578125 
L 66.5 0 
L 54 0 
L 28.515625 36.234375 
L 16.796875 24.8125 
L 16.796875 0 
z
" id="ArialMT-75"/>
        <path d="M 49.75 54.046875 
L 41.015625 53.375 
Q 39.84375 58.546875 37.703125 60.890625 
Q 34.125 64.65625 28.90625 64.65625 
Q 24.703125 64.65625 21.53125 62.3125 
Q 17.390625 59.28125 14.984375 53.46875 
Q 12.59375 47.65625 12.5 36.921875 
Q 15.671875 41.75 20.265625 44.09375 
Q 24.859375 46.4375 29.890625 46.4375 
Q 38.671875 46.4375 44.84375 39.96875 
Q 51.03125 33.5 51.03125 23.25 
Q 51.03125 16.5 48.125 10.71875 
Q 45.21875 4.9375 40.140625 1.859375 
Q 35.0625 -1.21875 28.609375 -1.21875 
Q 17.625 -1.21875 10.6875 6.859375 
Q 3.765625 14.9375 3.765625 33.5 
Q 3.765625 54.25 11.421875 63.671875 
Q 18.109375 71.875 29.4375 71.875 
Q 37.890625 71.875 43.28125 67.140625 
Q 48.6875 62.40625 49.75 54.046875 
z
M 13.875 23.1875 
Q 13.875 18.65625 15.796875 14.5 
Q 17.71875 10.359375 21.1875 8.171875 
Q 24.65625 6 28.46875 6 
Q 34.03125 6 38.03125 10.484375 
Q 42.046875 14.984375 42.046875 22.703125 
Q 42.046875 30.125 38.078125 34.390625 
Q 34.125 38.671875 28.125 38.671875 
Q 22.171875 38.671875 18.015625 34.390625 
Q 13.875 30.125 13.875 23.1875 
z
" id="ArialMT-54"/>
       </defs>
       <use xlink:href="#ArialMT-81"/>
       <use x="77.783203" xlink:href="#ArialMT-75"/>
       <use x="144.482422" xlink:href="#ArialMT-83"/>
       <use x="211.181641" xlink:href="#ArialMT-54"/>
       <use x="266.796875" xlink:href="#ArialMT-55"/>
       <use x="322.412109" xlink:href="#ArialMT-52"/>
       <use x="378.027344" xlink:href="#ArialMT-52"/>
       <use x="433.642578" xlink:href="#ArialMT-51"/>
      </g>
     </g>
    </g>
    <g id="xtick_4">
     <g id="text_4">
      <!-- QNO71459 -->
      <g style="fill:#262626;" transform="translate(256.113906 245.193107)scale(0.1 -0.1)">
       <defs>
        <path d="M 4.828125 34.859375 
Q 4.828125 52.6875 14.390625 62.765625 
Q 23.96875 72.859375 39.109375 72.859375 
Q 49.03125 72.859375 56.984375 68.109375 
Q 64.9375 63.375 69.109375 54.90625 
Q 73.296875 46.4375 73.296875 35.6875 
Q 73.296875 24.8125 68.890625 16.21875 
Q 64.5 7.625 56.4375 3.203125 
Q 48.390625 -1.21875 39.0625 -1.21875 
Q 28.953125 -1.21875 20.984375 3.65625 
Q 13.03125 8.546875 8.921875 16.984375 
Q 4.828125 25.4375 4.828125 34.859375 
z
M 14.59375 34.71875 
Q 14.59375 21.78125 21.546875 14.328125 
Q 28.515625 6.890625 39.015625 6.890625 
Q 49.703125 6.890625 56.609375 14.40625 
Q 63.53125 21.921875 63.53125 35.75 
Q 63.53125 44.484375 60.578125 51 
Q 57.625 57.515625 51.921875 61.109375 
Q 46.234375 64.703125 39.15625 64.703125 
Q 29.109375 64.703125 21.84375 57.78125 
Q 14.59375 50.875 14.59375 34.71875 
z
" id="ArialMT-79"/>
       </defs>
       <use xlink:href="#ArialMT-81"/>
       <use x="77.783203" xlink:href="#ArialMT-78"/>
       <use x="150" xlink:href="#ArialMT-79"/>
       <use x="227.783203" xlink:href="#ArialMT-55"/>
       <use x="283.398438" xlink:href="#ArialMT-49"/>
       <use x="339.013672" xlink:href="#ArialMT-52"/>
       <use x="394.628906" xlink:href="#ArialMT-53"/>
       <use x="450.244141" xlink:href="#ArialMT-57"/>
      </g>
     </g>
    </g>
    <g id="xtick_5">
     <g id="text_5">
      <!-- YP_009724390 -->
      <g style="fill:#262626;" transform="translate(313.890313 245.222794)scale(0.1 -0.1)">
       <defs>
        <path d="M 27.875 0 
L 27.875 30.328125 
L 0.296875 71.578125 
L 11.8125 71.578125 
L 25.921875 50 
Q 29.828125 43.953125 33.203125 37.890625 
Q 36.421875 43.5 41.015625 50.53125 
L 54.890625 71.578125 
L 65.921875 71.578125 
L 37.359375 30.328125 
L 37.359375 0 
z
" id="ArialMT-89"/>
        <path d="M 7.71875 0 
L 7.71875 71.578125 
L 34.71875 71.578125 
Q 41.84375 71.578125 45.609375 70.90625 
Q 50.875 70.015625 54.4375 67.546875 
Q 58.015625 65.09375 60.1875 60.640625 
Q 62.359375 56.203125 62.359375 50.875 
Q 62.359375 41.75 56.546875 35.421875 
Q 50.734375 29.109375 35.546875 29.109375 
L 17.1875 29.109375 
L 17.1875 0 
z
M 17.1875 37.546875 
L 35.6875 37.546875 
Q 44.875 37.546875 48.734375 40.96875 
Q 52.59375 44.390625 52.59375 50.59375 
Q 52.59375 55.078125 50.3125 58.265625 
Q 48.046875 61.46875 44.34375 62.5 
Q 41.9375 63.140625 35.5 63.140625 
L 17.1875 63.140625 
z
" id="ArialMT-80"/>
        <path d="M -1.515625 -19.875 
L -1.515625 -13.53125 
L 56.734375 -13.53125 
L 56.734375 -19.875 
z
" id="ArialMT-95"/>
       </defs>
       <use xlink:href="#ArialMT-89"/>
       <use x="66.699219" xlink:href="#ArialMT-80"/>
       <use x="133.398438" xlink:href="#ArialMT-95"/>
       <use x="189.013672" xlink:href="#ArialMT-48"/>
       <use x="244.628906" xlink:href="#ArialMT-48"/>
       <use x="300.244141" xlink:href="#ArialMT-57"/>
       <use x="355.859375" xlink:href="#ArialMT-55"/>
       <use x="411.474609" xlink:href="#ArialMT-50"/>
       <use x="467.089844" xlink:href="#ArialMT-52"/>
       <use x="522.705078" xlink:href="#ArialMT-51"/>
       <use x="578.320312" xlink:href="#ArialMT-57"/>
       <use x="633.935547" xlink:href="#ArialMT-48"/>
      </g>
     </g>
    </g>
    <g id="xtick_6">
     <g id="text_6">
      <!-- QKV38004 -->
      <g style="fill:#262626;" transform="translate(390.863594 245.193107)scale(0.1 -0.1)">
       <defs>
        <path d="M 28.171875 0 
L 0.4375 71.578125 
L 10.6875 71.578125 
L 29.296875 19.578125 
Q 31.546875 13.328125 33.0625 7.859375 
Q 34.71875 13.71875 36.921875 19.578125 
L 56.25 71.578125 
L 65.921875 71.578125 
L 37.890625 0 
z
" id="ArialMT-86"/>
        <path d="M 17.671875 38.8125 
Q 12.203125 40.828125 9.5625 44.53125 
Q 6.9375 48.25 6.9375 53.421875 
Q 6.9375 61.234375 12.546875 66.546875 
Q 18.171875 71.875 27.484375 71.875 
Q 36.859375 71.875 42.578125 66.421875 
Q 48.296875 60.984375 48.296875 53.171875 
Q 48.296875 48.1875 45.671875 44.5 
Q 43.0625 40.828125 37.75 38.8125 
Q 44.34375 36.671875 47.78125 31.875 
Q 51.21875 27.09375 51.21875 20.453125 
Q 51.21875 11.28125 44.71875 5.03125 
Q 38.234375 -1.21875 27.640625 -1.21875 
Q 17.046875 -1.21875 10.546875 5.046875 
Q 4.046875 11.328125 4.046875 20.703125 
Q 4.046875 27.6875 7.59375 32.390625 
Q 11.140625 37.109375 17.671875 38.8125 
z
M 15.921875 53.71875 
Q 15.921875 48.640625 19.1875 45.40625 
Q 22.46875 42.1875 27.6875 42.1875 
Q 32.765625 42.1875 36.015625 45.375 
Q 39.265625 48.578125 39.265625 53.21875 
Q 39.265625 58.0625 35.90625 61.359375 
Q 32.5625 64.65625 27.59375 64.65625 
Q 22.5625 64.65625 19.234375 61.421875 
Q 15.921875 58.203125 15.921875 53.71875 
z
M 13.09375 20.65625 
Q 13.09375 16.890625 14.875 13.375 
Q 16.65625 9.859375 20.171875 7.921875 
Q 23.6875 6 27.734375 6 
Q 34.03125 6 38.125 10.046875 
Q 42.234375 14.109375 42.234375 20.359375 
Q 42.234375 26.703125 38.015625 30.859375 
Q 33.796875 35.015625 27.4375 35.015625 
Q 21.234375 35.015625 17.15625 30.90625 
Q 13.09375 26.8125 13.09375 20.65625 
z
" id="ArialMT-56"/>
       </defs>
       <use xlink:href="#ArialMT-81"/>
       <use x="77.783203" xlink:href="#ArialMT-75"/>
       <use x="144.482422" xlink:href="#ArialMT-86"/>
       <use x="211.181641" xlink:href="#ArialMT-51"/>
       <use x="266.796875" xlink:href="#ArialMT-56"/>
       <use x="322.412109" xlink:href="#ArialMT-48"/>
       <use x="378.027344" xlink:href="#ArialMT-48"/>
       <use x="433.642578" xlink:href="#ArialMT-52"/>
      </g>
     </g>
    </g>
    <g id="xtick_7">
     <g id="text_7">
      <!-- QJR88113 -->
      <g style="fill:#262626;" transform="translate(458.751719 245.193107)scale(0.1 -0.1)">
       <defs>
        <path d="M 2.875 20.3125 
L 11.421875 21.484375 
Q 11.765625 13.28125 14.5 10.25 
Q 17.234375 7.234375 22.078125 7.234375 
Q 25.640625 7.234375 28.21875 8.859375 
Q 30.8125 10.5 31.78125 13.296875 
Q 32.765625 16.109375 32.765625 22.265625 
L 32.765625 71.578125 
L 42.234375 71.578125 
L 42.234375 22.796875 
Q 42.234375 13.8125 40.0625 8.875 
Q 37.890625 3.953125 33.171875 1.359375 
Q 28.46875 -1.21875 22.125 -1.21875 
Q 12.703125 -1.21875 7.6875 4.203125 
Q 2.6875 9.625 2.875 20.3125 
z
" id="ArialMT-74"/>
        <path d="M 7.859375 0 
L 7.859375 71.578125 
L 39.59375 71.578125 
Q 49.171875 71.578125 54.140625 69.640625 
Q 59.125 67.71875 62.109375 62.828125 
Q 65.09375 57.953125 65.09375 52.046875 
Q 65.09375 44.4375 60.15625 39.203125 
Q 55.21875 33.984375 44.921875 32.5625 
Q 48.6875 30.765625 50.640625 29 
Q 54.78125 25.203125 58.5 19.484375 
L 70.953125 0 
L 59.03125 0 
L 49.5625 14.890625 
Q 45.40625 21.34375 42.71875 24.75 
Q 40.046875 28.171875 37.921875 29.53125 
Q 35.796875 30.90625 33.59375 31.453125 
Q 31.984375 31.78125 28.328125 31.78125 
L 17.328125 31.78125 
L 17.328125 0 
z
M 17.328125 39.984375 
L 37.703125 39.984375 
Q 44.1875 39.984375 47.84375 41.328125 
Q 51.515625 42.671875 53.421875 45.625 
Q 55.328125 48.578125 55.328125 52.046875 
Q 55.328125 57.125 51.640625 60.390625 
Q 47.953125 63.671875 39.984375 63.671875 
L 17.328125 63.671875 
z
" id="ArialMT-82"/>
       </defs>
       <use xlink:href="#ArialMT-81"/>
       <use x="77.783203" xlink:href="#ArialMT-74"/>
       <use x="127.783203" xlink:href="#ArialMT-82"/>
       <use x="200" xlink:href="#ArialMT-56"/>
       <use x="255.615234" xlink:href="#ArialMT-56"/>
       <use x="311.230469" xlink:href="#ArialMT-49"/>
       <use x="359.470703" xlink:href="#ArialMT-49"/>
       <use x="415.085938" xlink:href="#ArialMT-51"/>
      </g>
     </g>
    </g>
    <g id="xtick_8">
     <g id="text_8">
      <!-- QOP81043 -->
      <g style="fill:#262626;" transform="translate(524.229688 245.193107)scale(0.1 -0.1)">
       <use xlink:href="#ArialMT-81"/>
       <use x="77.783203" xlink:href="#ArialMT-79"/>
       <use x="155.566406" xlink:href="#ArialMT-80"/>
       <use x="222.265625" xlink:href="#ArialMT-56"/>
       <use x="277.880859" xlink:href="#ArialMT-49"/>
       <use x="333.496094" xlink:href="#ArialMT-48"/>
       <use x="389.111328" xlink:href="#ArialMT-52"/>
       <use x="444.726562" xlink:href="#ArialMT-51"/>
      </g>
     </g>
    </g>
    <g id="xtick_9">
     <g id="text_9">
      <!-- QHZ00379 -->
      <g style="fill:#262626;" transform="translate(591.749063 245.193107)scale(0.1 -0.1)">
       <defs>
        <path d="M 8.015625 0 
L 8.015625 71.578125 
L 17.484375 71.578125 
L 17.484375 42.1875 
L 54.6875 42.1875 
L 54.6875 71.578125 
L 64.15625 71.578125 
L 64.15625 0 
L 54.6875 0 
L 54.6875 33.734375 
L 17.484375 33.734375 
L 17.484375 0 
z
" id="ArialMT-72"/>
        <path d="M 2 0 
L 2 8.796875 
L 38.671875 54.640625 
Q 42.578125 59.515625 46.09375 63.140625 
L 6.15625 63.140625 
L 6.15625 71.578125 
L 57.421875 71.578125 
L 57.421875 63.140625 
L 17.234375 13.484375 
L 12.890625 8.453125 
L 58.59375 8.453125 
L 58.59375 0 
z
" id="ArialMT-90"/>
       </defs>
       <use xlink:href="#ArialMT-81"/>
       <use x="77.783203" xlink:href="#ArialMT-72"/>
       <use x="150" xlink:href="#ArialMT-90"/>
       <use x="211.083984" xlink:href="#ArialMT-48"/>
       <use x="266.699219" xlink:href="#ArialMT-48"/>
       <use x="322.314453" xlink:href="#ArialMT-51"/>
       <use x="377.929688" xlink:href="#ArialMT-55"/>
       <use x="433.544922" xlink:href="#ArialMT-57"/>
      </g>
     </g>
    </g>
    <g id="xtick_10">
     <g id="text_10">
      <!-- QOW79940 -->
      <g style="fill:#262626;" transform="translate(656.765313 245.193107)scale(0.1 -0.1)">
       <defs>
        <path d="M 20.21875 0 
L 1.21875 71.578125 
L 10.9375 71.578125 
L 21.828125 24.65625 
Q 23.578125 17.28125 24.859375 10.015625 
Q 27.59375 21.484375 28.078125 23.25 
L 41.703125 71.578125 
L 53.125 71.578125 
L 63.375 35.359375 
Q 67.234375 21.875 68.953125 10.015625 
Q 70.3125 16.796875 72.515625 25.59375 
L 83.734375 71.578125 
L 93.265625 71.578125 
L 73.640625 0 
L 64.5 0 
L 49.421875 54.546875 
Q 47.515625 61.375 47.171875 62.9375 
Q 46.046875 58.015625 45.0625 54.546875 
L 29.890625 0 
z
" id="ArialMT-87"/>
       </defs>
       <use xlink:href="#ArialMT-81"/>
       <use x="77.783203" xlink:href="#ArialMT-79"/>
       <use x="155.566406" xlink:href="#ArialMT-87"/>
       <use x="249.951172" xlink:href="#ArialMT-55"/>
       <use x="305.566406" xlink:href="#ArialMT-57"/>
       <use x="361.181641" xlink:href="#ArialMT-57"/>
       <use x="416.796875" xlink:href="#ArialMT-52"/>
       <use x="472.412109" xlink:href="#ArialMT-48"/>
      </g>
     </g>
    </g>
   </g>
   <g id="matplotlib.axis_2">
    <g id="ytick_1">
     <g id="line2d_1">
      <path clip-path="url(#p3fbd139a8c)" d="M 47.045313 220.860963 
L 716.645313 220.860963 
" style="fill:none;stroke:#cccccc;stroke-linecap:round;stroke-width:0.8;"/>
     </g>
     <g id="text_11">
      <!-- $\mathdefault{10^{0}}$ -->
      <g style="fill:#262626;" transform="translate(24.345313 226.017213)scale(0.1 -0.1)">
       <use transform="translate(0 0.99375)" xlink:href="#ArialMT-49"/>
       <use transform="translate(55.615234 0.99375)" xlink:href="#ArialMT-48"/>
       <use transform="translate(112.972813 70.6875)scale(0.7)" xlink:href="#ArialMT-48"/>
      </g>
     </g>
    </g>
    <g id="ytick_2">
     <g id="line2d_2">
      <path clip-path="url(#p3fbd139a8c)" d="M 47.045313 145.916547 
L 716.645313 145.916547 
" style="fill:none;stroke:#cccccc;stroke-linecap:round;stroke-width:0.8;"/>
     </g>
     <g id="text_12">
      <!-- $\mathdefault{10^{1}}$ -->
      <g style="fill:#262626;" transform="translate(24.345313 151.072797)scale(0.1 -0.1)">
       <use transform="translate(0 0.99375)" xlink:href="#ArialMT-49"/>
       <use transform="translate(55.615234 0.99375)" xlink:href="#ArialMT-48"/>
       <use transform="translate(112.972813 70.6875)scale(0.7)" xlink:href="#ArialMT-49"/>
      </g>
     </g>
    </g>
    <g id="ytick_3">
     <g id="line2d_3">
      <path clip-path="url(#p3fbd139a8c)" d="M 47.045313 70.972131 
L 716.645313 70.972131 
" style="fill:none;stroke:#cccccc;stroke-linecap:round;stroke-width:0.8;"/>
     </g>
     <g id="text_13">
      <!-- $\mathdefault{10^{2}}$ -->
      <g style="fill:#262626;" transform="translate(24.345313 76.128381)scale(0.1 -0.1)">
       <use transform="translate(0 0.99375)" xlink:href="#ArialMT-49"/>
       <use transform="translate(55.615234 0.99375)" xlink:href="#ArialMT-48"/>
       <use transform="translate(112.972813 70.6875)scale(0.7)" xlink:href="#ArialMT-50"/>
      </g>
     </g>
    </g>
    <g id="ytick_4"/>
    <g id="ytick_5"/>
    <g id="ytick_6"/>
    <g id="ytick_7"/>
    <g id="ytick_8"/>
    <g id="ytick_9"/>
    <g id="ytick_10"/>
    <g id="ytick_11"/>
    <g id="ytick_12"/>
    <g id="ytick_13"/>
    <g id="ytick_14"/>
    <g id="ytick_15"/>
    <g id="ytick_16"/>
    <g id="ytick_17"/>
    <g id="ytick_18"/>
    <g id="ytick_19"/>
    <g id="ytick_20"/>
    <g id="ytick_21"/>
    <g id="ytick_22"/>
    <g id="ytick_23"/>
    <g id="ytick_24"/>
    <g id="ytick_25"/>
    <g id="ytick_26"/>
    <g id="ytick_27"/>
    <g id="text_14">
     <!-- Liczność grup -->
     <g style="fill:#262626;" transform="translate(18.240625 149.965303)rotate(-90)scale(0.1 -0.1)">
      <defs>
       <path d="M 7.328125 0 
L 7.328125 71.578125 
L 16.796875 71.578125 
L 16.796875 8.453125 
L 52.046875 8.453125 
L 52.046875 0 
z
" id="ArialMT-76"/>
       <path d="M 6.640625 61.46875 
L 6.640625 71.578125 
L 15.4375 71.578125 
L 15.4375 61.46875 
z
M 6.640625 0 
L 6.640625 51.859375 
L 15.4375 51.859375 
L 15.4375 0 
z
" id="ArialMT-105"/>
       <path d="M 40.4375 19 
L 49.078125 17.875 
Q 47.65625 8.9375 41.8125 3.875 
Q 35.984375 -1.171875 27.484375 -1.171875 
Q 16.84375 -1.171875 10.375 5.78125 
Q 3.90625 12.75 3.90625 25.734375 
Q 3.90625 34.125 6.6875 40.421875 
Q 9.46875 46.734375 15.15625 49.875 
Q 20.84375 53.03125 27.546875 53.03125 
Q 35.984375 53.03125 41.359375 48.75 
Q 46.734375 44.484375 48.25 36.625 
L 39.703125 35.296875 
Q 38.484375 40.53125 35.375 43.15625 
Q 32.28125 45.796875 27.875 45.796875 
Q 21.234375 45.796875 17.078125 41.03125 
Q 12.9375 36.28125 12.9375 25.984375 
Q 12.9375 15.53125 16.9375 10.796875 
Q 20.953125 6.0625 27.390625 6.0625 
Q 32.5625 6.0625 36.03125 9.234375 
Q 39.5 12.40625 40.4375 19 
z
" id="ArialMT-99"/>
       <path d="M 1.953125 0 
L 1.953125 7.125 
L 34.96875 45.015625 
Q 29.34375 44.734375 25.046875 44.734375 
L 3.90625 44.734375 
L 3.90625 51.859375 
L 46.296875 51.859375 
L 46.296875 46.046875 
L 18.21875 13.140625 
L 12.796875 7.125 
Q 18.703125 7.5625 23.875 7.5625 
L 47.859375 7.5625 
L 47.859375 0 
z
" id="ArialMT-122"/>
       <path d="M 6.59375 0 
L 6.59375 51.859375 
L 14.5 51.859375 
L 14.5 44.484375 
Q 20.21875 53.03125 31 53.03125 
Q 35.6875 53.03125 39.625 51.34375 
Q 43.5625 49.65625 45.515625 46.921875 
Q 47.46875 44.1875 48.25 40.4375 
Q 48.734375 37.984375 48.734375 31.890625 
L 48.734375 0 
L 39.9375 0 
L 39.9375 31.546875 
Q 39.9375 36.921875 38.90625 39.578125 
Q 37.890625 42.234375 35.28125 43.8125 
Q 32.671875 45.40625 29.15625 45.40625 
Q 23.53125 45.40625 19.453125 41.84375 
Q 15.375 38.28125 15.375 28.328125 
L 15.375 0 
z
" id="ArialMT-110"/>
       <path d="M 3.328125 25.921875 
Q 3.328125 40.328125 11.328125 47.265625 
Q 18.015625 53.03125 27.640625 53.03125 
Q 38.328125 53.03125 45.109375 46.015625 
Q 51.90625 39.015625 51.90625 26.65625 
Q 51.90625 16.65625 48.90625 10.90625 
Q 45.90625 5.171875 40.15625 2 
Q 34.421875 -1.171875 27.640625 -1.171875 
Q 16.75 -1.171875 10.03125 5.8125 
Q 3.328125 12.796875 3.328125 25.921875 
z
M 12.359375 25.921875 
Q 12.359375 15.96875 16.703125 11.015625 
Q 21.046875 6.0625 27.640625 6.0625 
Q 34.1875 6.0625 38.53125 11.03125 
Q 42.875 16.015625 42.875 26.21875 
Q 42.875 35.84375 38.5 40.796875 
Q 34.125 45.75 27.640625 45.75 
Q 21.046875 45.75 16.703125 40.8125 
Q 12.359375 35.890625 12.359375 25.921875 
z
" id="ArialMT-111"/>
       <path d="M 3.078125 15.484375 
L 11.765625 16.84375 
Q 12.5 11.625 15.84375 8.84375 
Q 19.1875 6.0625 25.203125 6.0625 
Q 31.25 6.0625 34.171875 8.515625 
Q 37.109375 10.984375 37.109375 14.3125 
Q 37.109375 17.28125 34.515625 19 
Q 32.71875 20.171875 25.53125 21.96875 
Q 15.875 24.421875 12.140625 26.203125 
Q 8.40625 27.984375 6.46875 31.125 
Q 4.546875 34.28125 4.546875 38.09375 
Q 4.546875 41.546875 6.125 44.5 
Q 7.71875 47.46875 10.453125 49.421875 
Q 12.5 50.921875 16.03125 51.96875 
Q 19.578125 53.03125 23.640625 53.03125 
Q 29.734375 53.03125 34.34375 51.265625 
Q 38.96875 49.515625 41.15625 46.5 
Q 43.359375 43.5 44.1875 38.484375 
L 35.59375 37.3125 
Q 35.015625 41.3125 32.203125 43.546875 
Q 29.390625 45.796875 24.265625 45.796875 
Q 18.21875 45.796875 15.625 43.796875 
Q 13.03125 41.796875 13.03125 39.109375 
Q 13.03125 37.40625 14.109375 36.03125 
Q 15.1875 34.625 17.484375 33.6875 
Q 18.796875 33.203125 25.25 31.453125 
Q 34.578125 28.953125 38.25 27.359375 
Q 41.9375 25.78125 44.03125 22.75 
Q 46.140625 19.734375 46.140625 15.234375 
Q 46.140625 10.84375 43.578125 6.953125 
Q 41.015625 3.078125 36.171875 0.953125 
Q 31.34375 -1.171875 25.25 -1.171875 
Q 15.140625 -1.171875 9.84375 3.03125 
Q 4.546875 7.234375 3.078125 15.484375 
z
M 19.234375 58.296875 
L 25.734375 71.96875 
L 37.25 71.96875 
L 26.515625 58.296875 
z
" id="ArialMT-347"/>
       <path d="M 40.4375 19 
L 49.078125 17.875 
Q 47.65625 8.9375 41.8125 3.875 
Q 35.984375 -1.171875 27.484375 -1.171875 
Q 16.84375 -1.171875 10.375 5.78125 
Q 3.90625 12.75 3.90625 25.734375 
Q 3.90625 34.125 6.6875 40.421875 
Q 9.46875 46.734375 15.15625 49.875 
Q 20.84375 53.03125 27.546875 53.03125 
Q 35.984375 53.03125 41.359375 48.75 
Q 46.734375 44.484375 48.25 36.625 
L 39.703125 35.296875 
Q 38.484375 40.53125 35.375 43.15625 
Q 32.28125 45.796875 27.875 45.796875 
Q 21.234375 45.796875 17.078125 41.03125 
Q 12.9375 36.28125 12.9375 25.984375 
Q 12.9375 15.53125 16.9375 10.796875 
Q 20.953125 6.0625 27.390625 6.0625 
Q 32.5625 6.0625 36.03125 9.234375 
Q 39.5 12.40625 40.4375 19 
z
M 20.703125 58.296875 
L 27.203125 71.96875 
L 38.71875 71.96875 
L 27.984375 58.296875 
z
" id="ArialMT-263"/>
       <path id="ArialMT-32"/>
       <path d="M 4.984375 -4.296875 
L 13.53125 -5.5625 
Q 14.0625 -9.515625 16.5 -11.328125 
Q 19.78125 -13.765625 25.4375 -13.765625 
Q 31.546875 -13.765625 34.859375 -11.328125 
Q 38.1875 -8.890625 39.359375 -4.5 
Q 40.046875 -1.8125 39.984375 6.78125 
Q 34.234375 0 25.640625 0 
Q 14.9375 0 9.078125 7.71875 
Q 3.21875 15.4375 3.21875 26.21875 
Q 3.21875 33.640625 5.90625 39.90625 
Q 8.59375 46.1875 13.6875 49.609375 
Q 18.796875 53.03125 25.6875 53.03125 
Q 34.859375 53.03125 40.828125 45.609375 
L 40.828125 51.859375 
L 48.921875 51.859375 
L 48.921875 7.03125 
Q 48.921875 -5.078125 46.453125 -10.125 
Q 44 -15.1875 38.640625 -18.109375 
Q 33.296875 -21.046875 25.484375 -21.046875 
Q 16.21875 -21.046875 10.5 -16.875 
Q 4.78125 -12.703125 4.984375 -4.296875 
z
M 12.25 26.859375 
Q 12.25 16.65625 16.296875 11.96875 
Q 20.359375 7.28125 26.46875 7.28125 
Q 32.515625 7.28125 36.609375 11.9375 
Q 40.71875 16.609375 40.71875 26.5625 
Q 40.71875 36.078125 36.5 40.90625 
Q 32.28125 45.75 26.3125 45.75 
Q 20.453125 45.75 16.34375 40.984375 
Q 12.25 36.234375 12.25 26.859375 
z
" id="ArialMT-103"/>
       <path d="M 6.5 0 
L 6.5 51.859375 
L 14.40625 51.859375 
L 14.40625 44 
Q 17.4375 49.515625 20 51.265625 
Q 22.5625 53.03125 25.640625 53.03125 
Q 30.078125 53.03125 34.671875 50.203125 
L 31.640625 42.046875 
Q 28.421875 43.953125 25.203125 43.953125 
Q 22.3125 43.953125 20.015625 42.21875 
Q 17.71875 40.484375 16.75 37.40625 
Q 15.28125 32.71875 15.28125 27.15625 
L 15.28125 0 
z
" id="ArialMT-114"/>
       <path d="M 40.578125 0 
L 40.578125 7.625 
Q 34.515625 -1.171875 24.125 -1.171875 
Q 19.53125 -1.171875 15.546875 0.578125 
Q 11.578125 2.34375 9.640625 5 
Q 7.71875 7.671875 6.9375 11.53125 
Q 6.390625 14.109375 6.390625 19.734375 
L 6.390625 51.859375 
L 15.1875 51.859375 
L 15.1875 23.09375 
Q 15.1875 16.21875 15.71875 13.8125 
Q 16.546875 10.359375 19.234375 8.375 
Q 21.921875 6.390625 25.875 6.390625 
Q 29.828125 6.390625 33.296875 8.421875 
Q 36.765625 10.453125 38.203125 13.9375 
Q 39.65625 17.4375 39.65625 24.078125 
L 39.65625 51.859375 
L 48.4375 51.859375 
L 48.4375 0 
z
" id="ArialMT-117"/>
       <path d="M 6.59375 -19.875 
L 6.59375 51.859375 
L 14.59375 51.859375 
L 14.59375 45.125 
Q 17.4375 49.078125 21 51.046875 
Q 24.5625 53.03125 29.640625 53.03125 
Q 36.28125 53.03125 41.359375 49.609375 
Q 46.4375 46.1875 49.015625 39.953125 
Q 51.609375 33.734375 51.609375 26.3125 
Q 51.609375 18.359375 48.75 11.984375 
Q 45.90625 5.609375 40.453125 2.21875 
Q 35.015625 -1.171875 29 -1.171875 
Q 24.609375 -1.171875 21.109375 0.6875 
Q 17.625 2.546875 15.375 5.375 
L 15.375 -19.875 
z
M 14.546875 25.640625 
Q 14.546875 15.625 18.59375 10.84375 
Q 22.65625 6.0625 28.421875 6.0625 
Q 34.28125 6.0625 38.453125 11.015625 
Q 42.625 15.96875 42.625 26.375 
Q 42.625 36.28125 38.546875 41.203125 
Q 34.46875 46.140625 28.8125 46.140625 
Q 23.1875 46.140625 18.859375 40.890625 
Q 14.546875 35.640625 14.546875 25.640625 
z
" id="ArialMT-112"/>
      </defs>
      <use xlink:href="#ArialMT-76"/>
      <use x="55.615234" xlink:href="#ArialMT-105"/>
      <use x="77.832031" xlink:href="#ArialMT-99"/>
      <use x="127.832031" xlink:href="#ArialMT-122"/>
      <use x="177.832031" xlink:href="#ArialMT-110"/>
      <use x="233.447266" xlink:href="#ArialMT-111"/>
      <use x="289.0625" xlink:href="#ArialMT-347"/>
      <use x="339.0625" xlink:href="#ArialMT-263"/>
      <use x="389.0625" xlink:href="#ArialMT-32"/>
      <use x="416.845703" xlink:href="#ArialMT-103"/>
      <use x="472.460938" xlink:href="#ArialMT-114"/>
      <use x="505.761719" xlink:href="#ArialMT-117"/>
      <use x="561.376953" xlink:href="#ArialMT-112"/>
     </g>
    </g>
   </g>
   <g id="patch_3">
    <path clip-path="url(#p3fbd139a8c)" d="M 53.741313 75165.276609 
L 107.309313 75165.276609 
L 107.309313 220.860963 
L 53.741313 220.860963 
z
" style="fill:#3274a1;stroke:#ffffff;stroke-linejoin:miter;"/>
   </g>
   <g id="patch_4">
    <path clip-path="url(#p3fbd139a8c)" d="M 120.701313 75165.276609 
L 174.269313 75165.276609 
L 174.269313 168.477064 
L 120.701313 168.477064 
z
" style="fill:#e1812c;stroke:#ffffff;stroke-linejoin:miter;"/>
   </g>
   <g id="patch_5">
    <path clip-path="url(#p3fbd139a8c)" d="M 187.661313 75165.276609 
L 241.229313 75165.276609 
L 241.229313 162.542872 
L 187.661313 162.542872 
z
" style="fill:#3a923a;stroke:#ffffff;stroke-linejoin:miter;"/>
   </g>
   <g id="patch_6">
    <path clip-path="url(#p3fbd139a8c)" d="M 254.621313 75165.276609 
L 308.189313 75165.276609 
L 308.189313 162.542872 
L 254.621313 162.542872 
z
" style="fill:#c03d3e;stroke:#ffffff;stroke-linejoin:miter;"/>
   </g>
   <g id="patch_7">
    <path clip-path="url(#p3fbd139a8c)" d="M 321.581313 75165.276609 
L 375.149313 75165.276609 
L 375.149313 220.860963 
L 321.581313 220.860963 
z
" style="fill:#9372b2;stroke:#ffffff;stroke-linejoin:miter;"/>
   </g>
   <g id="patch_8">
    <path clip-path="url(#p3fbd139a8c)" d="M 388.541313 75165.276609 
L 442.109312 75165.276609 
L 442.109312 17.374332 
L 388.541313 17.374332 
z
" style="fill:#845b53;stroke:#ffffff;stroke-linejoin:miter;"/>
   </g>
   <g id="patch_9">
    <path clip-path="url(#p3fbd139a8c)" d="M 455.501313 75165.276609 
L 509.069313 75165.276609 
L 509.069313 72.300803 
L 455.501313 72.300803 
z
" style="fill:#d684bd;stroke:#ffffff;stroke-linejoin:miter;"/>
   </g>
   <g id="patch_10">
    <path clip-path="url(#p3fbd139a8c)" d="M 522.461313 75165.276609 
L 576.029313 75165.276609 
L 576.029313 55.674478 
L 522.461313 55.674478 
z
" style="fill:#7f7f7f;stroke:#ffffff;stroke-linejoin:miter;"/>
   </g>
   <g id="patch_11">
    <path clip-path="url(#p3fbd139a8c)" d="M 589.421312 75165.276609 
L 642.989313 75165.276609 
L 642.989313 62.937343 
L 589.421312 62.937343 
z
" style="fill:#a9aa35;stroke:#ffffff;stroke-linejoin:miter;"/>
   </g>
   <g id="patch_12">
    <path clip-path="url(#p3fbd139a8c)" d="M 656.381313 75165.276609 
L 709.949313 75165.276609 
L 709.949313 49.069171 
L 656.381313 49.069171 
z
" style="fill:#2eabb8;stroke:#ffffff;stroke-linejoin:miter;"/>
   </g>
   <g id="line2d_4">
    <path clip-path="url(#p3fbd139a8c)" d="M 0 0 
" style="fill:none;stroke:#424242;stroke-linecap:round;stroke-width:2.7;"/>
   </g>
   <g id="line2d_5">
    <path clip-path="url(#p3fbd139a8c)" d="M 0 0 
" style="fill:none;stroke:#424242;stroke-linecap:round;stroke-width:2.7;"/>
   </g>
   <g id="line2d_6">
    <path clip-path="url(#p3fbd139a8c)" d="M 0 0 
" style="fill:none;stroke:#424242;stroke-linecap:round;stroke-width:2.7;"/>
   </g>
   <g id="line2d_7">
    <path clip-path="url(#p3fbd139a8c)" d="M 0 0 
" style="fill:none;stroke:#424242;stroke-linecap:round;stroke-width:2.7;"/>
   </g>
   <g id="line2d_8">
    <path clip-path="url(#p3fbd139a8c)" d="M 0 0 
" style="fill:none;stroke:#424242;stroke-linecap:round;stroke-width:2.7;"/>
   </g>
   <g id="line2d_9">
    <path clip-path="url(#p3fbd139a8c)" d="M 0 0 
" style="fill:none;stroke:#424242;stroke-linecap:round;stroke-width:2.7;"/>
   </g>
   <g id="line2d_10">
    <path clip-path="url(#p3fbd139a8c)" d="M 0 0 
" style="fill:none;stroke:#424242;stroke-linecap:round;stroke-width:2.7;"/>
   </g>
   <g id="line2d_11">
    <path clip-path="url(#p3fbd139a8c)" d="M 0 0 
" style="fill:none;stroke:#424242;stroke-linecap:round;stroke-width:2.7;"/>
   </g>
   <g id="line2d_12">
    <path clip-path="url(#p3fbd139a8c)" d="M 0 0 
" style="fill:none;stroke:#424242;stroke-linecap:round;stroke-width:2.7;"/>
   </g>
   <g id="line2d_13">
    <path clip-path="url(#p3fbd139a8c)" d="M 0 0 
" style="fill:none;stroke:#424242;stroke-linecap:round;stroke-width:2.7;"/>
   </g>
   <g id="patch_13">
    <path d="M 47.045313 231.035294 
L 47.045313 7.2 
" style="fill:none;stroke:#cccccc;stroke-linecap:square;stroke-linejoin:miter;stroke-width:0.8;"/>
   </g>
   <g id="patch_14">
    <path d="M 716.645313 231.035294 
L 716.645313 7.2 
" style="fill:none;stroke:#cccccc;stroke-linecap:square;stroke-linejoin:miter;stroke-width:0.8;"/>
   </g>
   <g id="patch_15">
    <path d="M 47.045313 231.035294 
L 716.645313 231.035294 
" style="fill:none;stroke:#cccccc;stroke-linecap:square;stroke-linejoin:miter;stroke-width:0.8;"/>
   </g>
   <g id="patch_16">
    <path d="M 47.045313 7.2 
L 716.645313 7.2 
" style="fill:none;stroke:#cccccc;stroke-linecap:square;stroke-linejoin:miter;stroke-width:0.8;"/>
   </g>
  </g>
  <g id="axes_2">
   <g id="patch_17">
    <path d="M 47.045313 499.637647 
L 716.645313 499.637647 
L 716.645313 275.802353 
L 47.045313 275.802353 
z
" style="fill:#ffffff;"/>
   </g>
   <g id="matplotlib.axis_3">
    <g id="xtick_11">
     <g id="text_15">
      <!-- QMS95041 -->
      <g style="fill:#262626;" transform="translate(55.233906 513.79546)scale(0.1 -0.1)">
       <use xlink:href="#ArialMT-81"/>
       <use x="77.783203" xlink:href="#ArialMT-77"/>
       <use x="161.083984" xlink:href="#ArialMT-83"/>
       <use x="227.783203" xlink:href="#ArialMT-57"/>
       <use x="283.398438" xlink:href="#ArialMT-53"/>
       <use x="339.013672" xlink:href="#ArialMT-48"/>
       <use x="394.628906" xlink:href="#ArialMT-52"/>
       <use x="450.244141" xlink:href="#ArialMT-49"/>
      </g>
     </g>
    </g>
    <g id="xtick_12">
     <g id="text_16">
      <!-- QNQ32127 -->
      <g style="fill:#262626;" transform="translate(122.193906 513.79546)scale(0.1 -0.1)">
       <use xlink:href="#ArialMT-81"/>
       <use x="77.783203" xlink:href="#ArialMT-78"/>
       <use x="150" xlink:href="#ArialMT-81"/>
       <use x="227.783203" xlink:href="#ArialMT-51"/>
       <use x="283.398438" xlink:href="#ArialMT-50"/>
       <use x="339.013672" xlink:href="#ArialMT-49"/>
       <use x="394.628906" xlink:href="#ArialMT-50"/>
       <use x="450.244141" xlink:href="#ArialMT-55"/>
      </g>
     </g>
    </g>
    <g id="xtick_13">
     <g id="text_17">
      <!-- QKS67443 -->
      <g style="fill:#262626;" transform="translate(189.983594 513.79546)scale(0.1 -0.1)">
       <use xlink:href="#ArialMT-81"/>
       <use x="77.783203" xlink:href="#ArialMT-75"/>
       <use x="144.482422" xlink:href="#ArialMT-83"/>
       <use x="211.181641" xlink:href="#ArialMT-54"/>
       <use x="266.796875" xlink:href="#ArialMT-55"/>
       <use x="322.412109" xlink:href="#ArialMT-52"/>
       <use x="378.027344" xlink:href="#ArialMT-52"/>
       <use x="433.642578" xlink:href="#ArialMT-51"/>
      </g>
     </g>
    </g>
    <g id="xtick_14">
     <g id="text_18">
      <!-- QNO71459 -->
      <g style="fill:#262626;" transform="translate(256.113906 513.79546)scale(0.1 -0.1)">
       <use xlink:href="#ArialMT-81"/>
       <use x="77.783203" xlink:href="#ArialMT-78"/>
       <use x="150" xlink:href="#ArialMT-79"/>
       <use x="227.783203" xlink:href="#ArialMT-55"/>
       <use x="283.398438" xlink:href="#ArialMT-49"/>
       <use x="339.013672" xlink:href="#ArialMT-52"/>
       <use x="394.628906" xlink:href="#ArialMT-53"/>
       <use x="450.244141" xlink:href="#ArialMT-57"/>
      </g>
     </g>
    </g>
    <g id="xtick_15">
     <g id="text_19">
      <!-- YP_009724390 -->
      <g style="fill:#262626;" transform="translate(313.890313 513.825147)scale(0.1 -0.1)">
       <use xlink:href="#ArialMT-89"/>
       <use x="66.699219" xlink:href="#ArialMT-80"/>
       <use x="133.398438" xlink:href="#ArialMT-95"/>
       <use x="189.013672" xlink:href="#ArialMT-48"/>
       <use x="244.628906" xlink:href="#ArialMT-48"/>
       <use x="300.244141" xlink:href="#ArialMT-57"/>
       <use x="355.859375" xlink:href="#ArialMT-55"/>
       <use x="411.474609" xlink:href="#ArialMT-50"/>
       <use x="467.089844" xlink:href="#ArialMT-52"/>
       <use x="522.705078" xlink:href="#ArialMT-51"/>
       <use x="578.320312" xlink:href="#ArialMT-57"/>
       <use x="633.935547" xlink:href="#ArialMT-48"/>
      </g>
     </g>
    </g>
    <g id="xtick_16">
     <g id="text_20">
      <!-- QKV38004 -->
      <g style="fill:#262626;" transform="translate(390.863594 513.79546)scale(0.1 -0.1)">
       <use xlink:href="#ArialMT-81"/>
       <use x="77.783203" xlink:href="#ArialMT-75"/>
       <use x="144.482422" xlink:href="#ArialMT-86"/>
       <use x="211.181641" xlink:href="#ArialMT-51"/>
       <use x="266.796875" xlink:href="#ArialMT-56"/>
       <use x="322.412109" xlink:href="#ArialMT-48"/>
       <use x="378.027344" xlink:href="#ArialMT-48"/>
       <use x="433.642578" xlink:href="#ArialMT-52"/>
      </g>
     </g>
    </g>
    <g id="xtick_17">
     <g id="text_21">
      <!-- QJR88113 -->
      <g style="fill:#262626;" transform="translate(458.751719 513.79546)scale(0.1 -0.1)">
       <use xlink:href="#ArialMT-81"/>
       <use x="77.783203" xlink:href="#ArialMT-74"/>
       <use x="127.783203" xlink:href="#ArialMT-82"/>
       <use x="200" xlink:href="#ArialMT-56"/>
       <use x="255.615234" xlink:href="#ArialMT-56"/>
       <use x="311.230469" xlink:href="#ArialMT-49"/>
       <use x="359.470703" xlink:href="#ArialMT-49"/>
       <use x="415.085938" xlink:href="#ArialMT-51"/>
      </g>
     </g>
    </g>
    <g id="xtick_18">
     <g id="text_22">
      <!-- QOP81043 -->
      <g style="fill:#262626;" transform="translate(524.229688 513.79546)scale(0.1 -0.1)">
       <use xlink:href="#ArialMT-81"/>
       <use x="77.783203" xlink:href="#ArialMT-79"/>
       <use x="155.566406" xlink:href="#ArialMT-80"/>
       <use x="222.265625" xlink:href="#ArialMT-56"/>
       <use x="277.880859" xlink:href="#ArialMT-49"/>
       <use x="333.496094" xlink:href="#ArialMT-48"/>
       <use x="389.111328" xlink:href="#ArialMT-52"/>
       <use x="444.726562" xlink:href="#ArialMT-51"/>
      </g>
     </g>
    </g>
    <g id="xtick_19">
     <g id="text_23">
      <!-- QHZ00379 -->
      <g style="fill:#262626;" transform="translate(591.749063 513.79546)scale(0.1 -0.1)">
       <use xlink:href="#ArialMT-81"/>
       <use x="77.783203" xlink:href="#ArialMT-72"/>
       <use x="150" xlink:href="#ArialMT-90"/>
       <use x="211.083984" xlink:href="#ArialMT-48"/>
       <use x="266.699219" xlink:href="#ArialMT-48"/>
       <use x="322.314453" xlink:href="#ArialMT-51"/>
       <use x="377.929688" xlink:href="#ArialMT-55"/>
       <use x="433.544922" xlink:href="#ArialMT-57"/>
      </g>
     </g>
    </g>
    <g id="xtick_20">
     <g id="text_24">
      <!-- QOW79940 -->
      <g style="fill:#262626;" transform="translate(656.765313 513.79546)scale(0.1 -0.1)">
       <use xlink:href="#ArialMT-81"/>
       <use x="77.783203" xlink:href="#ArialMT-79"/>
       <use x="155.566406" xlink:href="#ArialMT-87"/>
       <use x="249.951172" xlink:href="#ArialMT-55"/>
       <use x="305.566406" xlink:href="#ArialMT-57"/>
       <use x="361.181641" xlink:href="#ArialMT-57"/>
       <use x="416.796875" xlink:href="#ArialMT-52"/>
       <use x="472.412109" xlink:href="#ArialMT-48"/>
      </g>
     </g>
    </g>
   </g>
   <g id="matplotlib.axis_4">
    <g id="ytick_28">
     <g id="line2d_14">
      <path clip-path="url(#p2a081f5acb)" d="M 47.045313 499.637647 
L 716.645313 499.637647 
" style="fill:none;stroke:#cccccc;stroke-linecap:round;stroke-width:0.8;"/>
     </g>
     <g id="text_25">
      <!-- 0 -->
      <g style="fill:#262626;" transform="translate(34.484375 503.216553)scale(0.1 -0.1)">
       <use xlink:href="#ArialMT-48"/>
      </g>
     </g>
    </g>
    <g id="ytick_29">
     <g id="line2d_15">
      <path clip-path="url(#p2a081f5acb)" d="M 47.045313 472.990588 
L 716.645313 472.990588 
" style="fill:none;stroke:#cccccc;stroke-linecap:round;stroke-width:0.8;"/>
     </g>
     <g id="text_26">
      <!-- 2 -->
      <g style="fill:#262626;" transform="translate(34.484375 476.569494)scale(0.1 -0.1)">
       <use xlink:href="#ArialMT-50"/>
      </g>
     </g>
    </g>
    <g id="ytick_30">
     <g id="line2d_16">
      <path clip-path="url(#p2a081f5acb)" d="M 47.045313 446.343529 
L 716.645313 446.343529 
" style="fill:none;stroke:#cccccc;stroke-linecap:round;stroke-width:0.8;"/>
     </g>
     <g id="text_27">
      <!-- 4 -->
      <g style="fill:#262626;" transform="translate(34.484375 449.922436)scale(0.1 -0.1)">
       <use xlink:href="#ArialMT-52"/>
      </g>
     </g>
    </g>
    <g id="ytick_31">
     <g id="line2d_17">
      <path clip-path="url(#p2a081f5acb)" d="M 47.045313 419.696471 
L 716.645313 419.696471 
" style="fill:none;stroke:#cccccc;stroke-linecap:round;stroke-width:0.8;"/>
     </g>
     <g id="text_28">
      <!-- 6 -->
      <g style="fill:#262626;" transform="translate(34.484375 423.275377)scale(0.1 -0.1)">
       <use xlink:href="#ArialMT-54"/>
      </g>
     </g>
    </g>
    <g id="ytick_32">
     <g id="line2d_18">
      <path clip-path="url(#p2a081f5acb)" d="M 47.045313 393.049412 
L 716.645313 393.049412 
" style="fill:none;stroke:#cccccc;stroke-linecap:round;stroke-width:0.8;"/>
     </g>
     <g id="text_29">
      <!-- 8 -->
      <g style="fill:#262626;" transform="translate(34.484375 396.628318)scale(0.1 -0.1)">
       <use xlink:href="#ArialMT-56"/>
      </g>
     </g>
    </g>
    <g id="ytick_33">
     <g id="line2d_19">
      <path clip-path="url(#p2a081f5acb)" d="M 47.045313 366.402353 
L 716.645313 366.402353 
" style="fill:none;stroke:#cccccc;stroke-linecap:round;stroke-width:0.8;"/>
     </g>
     <g id="text_30">
      <!-- 10 -->
      <g style="fill:#262626;" transform="translate(28.923438 369.981259)scale(0.1 -0.1)">
       <use xlink:href="#ArialMT-49"/>
       <use x="55.615234" xlink:href="#ArialMT-48"/>
      </g>
     </g>
    </g>
    <g id="ytick_34">
     <g id="line2d_20">
      <path clip-path="url(#p2a081f5acb)" d="M 47.045313 339.755294 
L 716.645313 339.755294 
" style="fill:none;stroke:#cccccc;stroke-linecap:round;stroke-width:0.8;"/>
     </g>
     <g id="text_31">
      <!-- 12 -->
      <g style="fill:#262626;" transform="translate(28.923438 343.3342)scale(0.1 -0.1)">
       <use xlink:href="#ArialMT-49"/>
       <use x="55.615234" xlink:href="#ArialMT-50"/>
      </g>
     </g>
    </g>
    <g id="ytick_35">
     <g id="line2d_21">
      <path clip-path="url(#p2a081f5acb)" d="M 47.045313 313.108235 
L 716.645313 313.108235 
" style="fill:none;stroke:#cccccc;stroke-linecap:round;stroke-width:0.8;"/>
     </g>
     <g id="text_32">
      <!-- 14 -->
      <g style="fill:#262626;" transform="translate(28.923438 316.687142)scale(0.1 -0.1)">
       <use xlink:href="#ArialMT-49"/>
       <use x="55.615234" xlink:href="#ArialMT-52"/>
      </g>
     </g>
    </g>
    <g id="ytick_36">
     <g id="line2d_22">
      <path clip-path="url(#p2a081f5acb)" d="M 47.045313 286.461176 
L 716.645313 286.461176 
" style="fill:none;stroke:#cccccc;stroke-linecap:round;stroke-width:0.8;"/>
     </g>
     <g id="text_33">
      <!-- 16 -->
      <g style="fill:#262626;" transform="translate(28.923438 290.040083)scale(0.1 -0.1)">
       <use xlink:href="#ArialMT-49"/>
       <use x="55.615234" xlink:href="#ArialMT-54"/>
      </g>
     </g>
    </g>
    <g id="text_34">
     <!-- Ilość zmian względem sekwencji referencyjnej -->
     <g style="fill:#262626;" transform="translate(22.81875 489.699687)rotate(-90)scale(0.1 -0.1)">
      <defs>
       <path d="M 9.328125 0 
L 9.328125 71.578125 
L 18.796875 71.578125 
L 18.796875 0 
z
" id="ArialMT-73"/>
       <path d="M 6.390625 0 
L 6.390625 71.578125 
L 15.1875 71.578125 
L 15.1875 0 
z
" id="ArialMT-108"/>
       <path d="M 6.59375 0 
L 6.59375 51.859375 
L 14.453125 51.859375 
L 14.453125 44.578125 
Q 16.890625 48.390625 20.9375 50.703125 
Q 25 53.03125 30.171875 53.03125 
Q 35.9375 53.03125 39.625 50.640625 
Q 43.3125 48.25 44.828125 43.953125 
Q 50.984375 53.03125 60.84375 53.03125 
Q 68.5625 53.03125 72.703125 48.75 
Q 76.859375 44.484375 76.859375 35.59375 
L 76.859375 0 
L 68.109375 0 
L 68.109375 32.671875 
Q 68.109375 37.9375 67.25 40.25 
Q 66.40625 42.578125 64.15625 43.984375 
Q 61.921875 45.40625 58.890625 45.40625 
Q 53.421875 45.40625 49.796875 41.765625 
Q 46.1875 38.140625 46.1875 30.125 
L 46.1875 0 
L 37.40625 0 
L 37.40625 33.6875 
Q 37.40625 39.546875 35.25 42.46875 
Q 33.109375 45.40625 28.21875 45.40625 
Q 24.515625 45.40625 21.359375 43.453125 
Q 18.21875 41.5 16.796875 37.734375 
Q 15.375 33.984375 15.375 26.90625 
L 15.375 0 
z
" id="ArialMT-109"/>
       <path d="M 40.4375 6.390625 
Q 35.546875 2.25 31.03125 0.53125 
Q 26.515625 -1.171875 21.34375 -1.171875 
Q 12.796875 -1.171875 8.203125 3 
Q 3.609375 7.171875 3.609375 13.671875 
Q 3.609375 17.484375 5.34375 20.625 
Q 7.078125 23.78125 9.890625 25.6875 
Q 12.703125 27.59375 16.21875 28.5625 
Q 18.796875 29.25 24.03125 29.890625 
Q 34.671875 31.15625 39.703125 32.90625 
Q 39.75 34.71875 39.75 35.203125 
Q 39.75 40.578125 37.25 42.78125 
Q 33.890625 45.75 27.25 45.75 
Q 21.046875 45.75 18.09375 43.578125 
Q 15.140625 41.40625 13.71875 35.890625 
L 5.125 37.0625 
Q 6.296875 42.578125 8.984375 45.96875 
Q 11.671875 49.359375 16.75 51.1875 
Q 21.828125 53.03125 28.515625 53.03125 
Q 35.15625 53.03125 39.296875 51.46875 
Q 43.453125 49.90625 45.40625 47.53125 
Q 47.359375 45.171875 48.140625 41.546875 
Q 48.578125 39.3125 48.578125 33.453125 
L 48.578125 21.734375 
Q 48.578125 9.46875 49.140625 6.21875 
Q 49.703125 2.984375 51.375 0 
L 42.1875 0 
Q 40.828125 2.734375 40.4375 6.390625 
z
M 39.703125 26.03125 
Q 34.90625 24.078125 25.34375 22.703125 
Q 19.921875 21.921875 17.671875 20.9375 
Q 15.4375 19.96875 14.203125 18.09375 
Q 12.984375 16.21875 12.984375 13.921875 
Q 12.984375 10.40625 15.640625 8.0625 
Q 18.3125 5.71875 23.4375 5.71875 
Q 28.515625 5.71875 32.46875 7.9375 
Q 36.421875 10.15625 38.28125 14.015625 
Q 39.703125 17 39.703125 22.796875 
z
" id="ArialMT-97"/>
       <path d="M 16.15625 0 
L 0.296875 51.859375 
L 9.375 51.859375 
L 17.625 21.921875 
L 20.703125 10.796875 
Q 20.90625 11.625 23.390625 21.484375 
L 31.640625 51.859375 
L 40.671875 51.859375 
L 48.4375 21.78125 
L 51.03125 11.859375 
L 54 21.875 
L 62.890625 51.859375 
L 71.4375 51.859375 
L 55.21875 0 
L 46.09375 0 
L 37.84375 31.0625 
L 35.84375 39.890625 
L 25.34375 0 
z
" id="ArialMT-119"/>
       <path d="M 42.09375 16.703125 
L 51.171875 15.578125 
Q 49.03125 7.625 43.21875 3.21875 
Q 37.40625 -1.171875 28.375 -1.171875 
Q 17 -1.171875 10.328125 5.828125 
Q 3.65625 12.84375 3.65625 25.484375 
Q 3.65625 38.578125 10.390625 45.796875 
Q 17.140625 53.03125 27.875 53.03125 
Q 38.28125 53.03125 44.875 45.953125 
Q 51.46875 38.875 51.46875 26.03125 
Q 51.46875 25.25 51.421875 23.6875 
L 12.75 23.6875 
Q 13.234375 15.140625 17.578125 10.59375 
Q 21.921875 6.0625 28.421875 6.0625 
Q 33.25 6.0625 36.671875 8.59375 
Q 40.09375 11.140625 42.09375 16.703125 
z
M 13.234375 30.90625 
L 42.1875 30.90625 
Q 41.609375 37.453125 38.875 40.71875 
Q 34.671875 45.796875 27.984375 45.796875 
Q 21.921875 45.796875 17.796875 41.75 
Q 13.671875 37.703125 13.234375 30.90625 
z
M 35.890625 0 
Q 33.109375 -1.703125 31.5625 -4.21875 
Q 30.03125 -6.734375 30.03125 -9.328125 
Q 30.03125 -11.375 31.15625 -12.78125 
Q 32.28125 -14.203125 34.8125 -14.203125 
Q 35.9375 -14.203125 37.109375 -13.890625 
Q 38.28125 -13.578125 39.265625 -13.03125 
L 39.265625 -19.28125 
Q 35.6875 -21 32.625 -21 
Q 30.125 -21 28.265625 -20.28125 
Q 26.421875 -19.578125 25.171875 -18.328125 
Q 23.921875 -17.09375 23.3125 -15.484375 
Q 22.703125 -13.875 22.703125 -12.015625 
Q 22.703125 -8.890625 24.453125 -5.734375 
Q 26.21875 -2.59375 29.4375 0 
z
" id="ArialMT-281"/>
       <path d="M 40.234375 0 
L 40.234375 6.546875 
Q 35.296875 -1.171875 25.734375 -1.171875 
Q 19.53125 -1.171875 14.328125 2.25 
Q 9.125 5.671875 6.265625 11.796875 
Q 3.421875 17.921875 3.421875 25.875 
Q 3.421875 33.640625 6 39.96875 
Q 8.59375 46.296875 13.765625 49.65625 
Q 18.953125 53.03125 25.34375 53.03125 
Q 30.03125 53.03125 33.6875 51.046875 
Q 37.359375 49.078125 39.65625 45.90625 
L 39.65625 71.578125 
L 48.390625 71.578125 
L 48.390625 0 
z
M 12.453125 25.875 
Q 12.453125 15.921875 16.640625 10.984375 
Q 20.84375 6.0625 26.5625 6.0625 
Q 32.328125 6.0625 36.34375 10.765625 
Q 40.375 15.484375 40.375 25.140625 
Q 40.375 35.796875 36.265625 40.765625 
Q 32.171875 45.75 26.171875 45.75 
Q 20.3125 45.75 16.375 40.96875 
Q 12.453125 36.1875 12.453125 25.875 
z
" id="ArialMT-100"/>
       <path d="M 42.09375 16.703125 
L 51.171875 15.578125 
Q 49.03125 7.625 43.21875 3.21875 
Q 37.40625 -1.171875 28.375 -1.171875 
Q 17 -1.171875 10.328125 5.828125 
Q 3.65625 12.84375 3.65625 25.484375 
Q 3.65625 38.578125 10.390625 45.796875 
Q 17.140625 53.03125 27.875 53.03125 
Q 38.28125 53.03125 44.875 45.953125 
Q 51.46875 38.875 51.46875 26.03125 
Q 51.46875 25.25 51.421875 23.6875 
L 12.75 23.6875 
Q 13.234375 15.140625 17.578125 10.59375 
Q 21.921875 6.0625 28.421875 6.0625 
Q 33.25 6.0625 36.671875 8.59375 
Q 40.09375 11.140625 42.09375 16.703125 
z
M 13.234375 30.90625 
L 42.1875 30.90625 
Q 41.609375 37.453125 38.875 40.71875 
Q 34.671875 45.796875 27.984375 45.796875 
Q 21.921875 45.796875 17.796875 41.75 
Q 13.671875 37.703125 13.234375 30.90625 
z
" id="ArialMT-101"/>
       <path d="M 3.078125 15.484375 
L 11.765625 16.84375 
Q 12.5 11.625 15.84375 8.84375 
Q 19.1875 6.0625 25.203125 6.0625 
Q 31.25 6.0625 34.171875 8.515625 
Q 37.109375 10.984375 37.109375 14.3125 
Q 37.109375 17.28125 34.515625 19 
Q 32.71875 20.171875 25.53125 21.96875 
Q 15.875 24.421875 12.140625 26.203125 
Q 8.40625 27.984375 6.46875 31.125 
Q 4.546875 34.28125 4.546875 38.09375 
Q 4.546875 41.546875 6.125 44.5 
Q 7.71875 47.46875 10.453125 49.421875 
Q 12.5 50.921875 16.03125 51.96875 
Q 19.578125 53.03125 23.640625 53.03125 
Q 29.734375 53.03125 34.34375 51.265625 
Q 38.96875 49.515625 41.15625 46.5 
Q 43.359375 43.5 44.1875 38.484375 
L 35.59375 37.3125 
Q 35.015625 41.3125 32.203125 43.546875 
Q 29.390625 45.796875 24.265625 45.796875 
Q 18.21875 45.796875 15.625 43.796875 
Q 13.03125 41.796875 13.03125 39.109375 
Q 13.03125 37.40625 14.109375 36.03125 
Q 15.1875 34.625 17.484375 33.6875 
Q 18.796875 33.203125 25.25 31.453125 
Q 34.578125 28.953125 38.25 27.359375 
Q 41.9375 25.78125 44.03125 22.75 
Q 46.140625 19.734375 46.140625 15.234375 
Q 46.140625 10.84375 43.578125 6.953125 
Q 41.015625 3.078125 36.171875 0.953125 
Q 31.34375 -1.171875 25.25 -1.171875 
Q 15.140625 -1.171875 9.84375 3.03125 
Q 4.546875 7.234375 3.078125 15.484375 
z
" id="ArialMT-115"/>
       <path d="M 6.640625 0 
L 6.640625 71.578125 
L 15.4375 71.578125 
L 15.4375 30.765625 
L 36.234375 51.859375 
L 47.609375 51.859375 
L 27.78125 32.625 
L 49.609375 0 
L 38.765625 0 
L 21.625 26.515625 
L 15.4375 20.5625 
L 15.4375 0 
z
" id="ArialMT-107"/>
       <path d="M 6.546875 61.375 
L 6.546875 71.578125 
L 15.328125 71.578125 
L 15.328125 61.375 
z
M -4.59375 -20.125 
L -2.9375 -12.640625 
Q -0.296875 -13.328125 1.21875 -13.328125 
Q 3.90625 -13.328125 5.21875 -11.546875 
Q 6.546875 -9.765625 6.546875 -2.640625 
L 6.546875 51.859375 
L 15.328125 51.859375 
L 15.328125 -2.828125 
Q 15.328125 -12.40625 12.84375 -16.15625 
Q 9.671875 -21.046875 2.296875 -21.046875 
Q -1.265625 -21.046875 -4.59375 -20.125 
z
" id="ArialMT-106"/>
       <path d="M 8.6875 0 
L 8.6875 45.015625 
L 0.921875 45.015625 
L 0.921875 51.859375 
L 8.6875 51.859375 
L 8.6875 57.375 
Q 8.6875 62.59375 9.625 65.140625 
Q 10.890625 68.5625 14.078125 70.671875 
Q 17.28125 72.796875 23.046875 72.796875 
Q 26.765625 72.796875 31.25 71.921875 
L 29.9375 64.265625 
Q 27.203125 64.75 24.75 64.75 
Q 20.75 64.75 19.09375 63.03125 
Q 17.4375 61.328125 17.4375 56.640625 
L 17.4375 51.859375 
L 27.546875 51.859375 
L 27.546875 45.015625 
L 17.4375 45.015625 
L 17.4375 0 
z
" id="ArialMT-102"/>
       <path d="M 6.203125 -19.96875 
L 5.21875 -11.71875 
Q 8.109375 -12.5 10.25 -12.5 
Q 13.1875 -12.5 14.9375 -11.515625 
Q 16.703125 -10.546875 17.828125 -8.796875 
Q 18.65625 -7.46875 20.515625 -2.25 
Q 20.75 -1.515625 21.296875 -0.09375 
L 1.609375 51.859375 
L 11.078125 51.859375 
L 21.875 21.828125 
Q 23.96875 16.109375 25.640625 9.8125 
Q 27.15625 15.875 29.25 21.625 
L 40.328125 51.859375 
L 49.125 51.859375 
L 29.390625 -0.875 
Q 26.21875 -9.421875 24.46875 -12.640625 
Q 22.125 -17 19.09375 -19.015625 
Q 16.0625 -21.046875 11.859375 -21.046875 
Q 9.328125 -21.046875 6.203125 -19.96875 
z
" id="ArialMT-121"/>
      </defs>
      <use xlink:href="#ArialMT-73"/>
      <use x="27.783203" xlink:href="#ArialMT-108"/>
      <use x="50" xlink:href="#ArialMT-111"/>
      <use x="105.615234" xlink:href="#ArialMT-347"/>
      <use x="155.615234" xlink:href="#ArialMT-263"/>
      <use x="205.615234" xlink:href="#ArialMT-32"/>
      <use x="233.398438" xlink:href="#ArialMT-122"/>
      <use x="283.398438" xlink:href="#ArialMT-109"/>
      <use x="366.699219" xlink:href="#ArialMT-105"/>
      <use x="388.916016" xlink:href="#ArialMT-97"/>
      <use x="444.53125" xlink:href="#ArialMT-110"/>
      <use x="500.146484" xlink:href="#ArialMT-32"/>
      <use x="527.929688" xlink:href="#ArialMT-119"/>
      <use x="600.146484" xlink:href="#ArialMT-122"/>
      <use x="650.146484" xlink:href="#ArialMT-103"/>
      <use x="705.761719" xlink:href="#ArialMT-108"/>
      <use x="727.978516" xlink:href="#ArialMT-281"/>
      <use x="783.59375" xlink:href="#ArialMT-100"/>
      <use x="839.208984" xlink:href="#ArialMT-101"/>
      <use x="894.824219" xlink:href="#ArialMT-109"/>
      <use x="978.125" xlink:href="#ArialMT-32"/>
      <use x="1005.908203" xlink:href="#ArialMT-115"/>
      <use x="1055.908203" xlink:href="#ArialMT-101"/>
      <use x="1111.523438" xlink:href="#ArialMT-107"/>
      <use x="1161.523438" xlink:href="#ArialMT-119"/>
      <use x="1233.740234" xlink:href="#ArialMT-101"/>
      <use x="1289.355469" xlink:href="#ArialMT-110"/>
      <use x="1344.970703" xlink:href="#ArialMT-99"/>
      <use x="1394.970703" xlink:href="#ArialMT-106"/>
      <use x="1417.1875" xlink:href="#ArialMT-105"/>
      <use x="1439.404297" xlink:href="#ArialMT-32"/>
      <use x="1467.1875" xlink:href="#ArialMT-114"/>
      <use x="1500.488281" xlink:href="#ArialMT-101"/>
      <use x="1556.103516" xlink:href="#ArialMT-102"/>
      <use x="1583.886719" xlink:href="#ArialMT-101"/>
      <use x="1639.501953" xlink:href="#ArialMT-114"/>
      <use x="1672.802734" xlink:href="#ArialMT-101"/>
      <use x="1728.417969" xlink:href="#ArialMT-110"/>
      <use x="1784.033203" xlink:href="#ArialMT-99"/>
      <use x="1834.033203" xlink:href="#ArialMT-121"/>
      <use x="1884.033203" xlink:href="#ArialMT-106"/>
      <use x="1906.25" xlink:href="#ArialMT-110"/>
      <use x="1961.865234" xlink:href="#ArialMT-101"/>
      <use x="2017.480469" xlink:href="#ArialMT-106"/>
     </g>
    </g>
   </g>
   <g id="patch_18">
    <path clip-path="url(#p2a081f5acb)" d="M 53.741313 499.637647 
L 107.309313 499.637647 
L 107.309313 286.461176 
L 53.741313 286.461176 
z
" style="fill:#3274a1;stroke:#ffffff;stroke-linejoin:miter;"/>
   </g>
   <g id="patch_19">
    <path clip-path="url(#p2a081f5acb)" d="M 120.701313 499.637647 
L 174.269313 499.637647 
L 174.269313 433.02 
L 120.701313 433.02 
z
" style="fill:#e1812c;stroke:#ffffff;stroke-linejoin:miter;"/>
   </g>
   <g id="patch_20">
    <path clip-path="url(#p2a081f5acb)" d="M 187.661313 499.637647 
L 241.229313 499.637647 
L 241.229313 353.078824 
L 187.661313 353.078824 
z
" style="fill:#3a923a;stroke:#ffffff;stroke-linejoin:miter;"/>
   </g>
   <g id="patch_21">
    <path clip-path="url(#p2a081f5acb)" d="M 254.621313 499.637647 
L 308.189313 499.637647 
L 308.189313 339.755294 
L 254.621313 339.755294 
z
" style="fill:#c03d3e;stroke:#ffffff;stroke-linejoin:miter;"/>
   </g>
   <g id="patch_22">
    <path clip-path="url(#p2a081f5acb)" d="M 321.581313 499.637647 
L 375.149313 499.637647 
L 375.149313 499.637647 
L 321.581313 499.637647 
z
" style="fill:#9372b2;stroke:#ffffff;stroke-linejoin:miter;"/>
   </g>
   <g id="patch_23">
    <path clip-path="url(#p2a081f5acb)" d="M 388.541313 499.637647 
L 442.109312 499.637647 
L 442.109312 472.990588 
L 388.541313 472.990588 
z
" style="fill:#845b53;stroke:#ffffff;stroke-linejoin:miter;"/>
   </g>
   <g id="patch_24">
    <path clip-path="url(#p2a081f5acb)" d="M 455.501313 499.637647 
L 509.069313 499.637647 
L 509.069313 472.990588 
L 455.501313 472.990588 
z
" style="fill:#d684bd;stroke:#ffffff;stroke-linejoin:miter;"/>
   </g>
   <g id="patch_25">
    <path clip-path="url(#p2a081f5acb)" d="M 522.461313 499.637647 
L 576.029313 499.637647 
L 576.029313 459.667059 
L 522.461313 459.667059 
z
" style="fill:#7f7f7f;stroke:#ffffff;stroke-linejoin:miter;"/>
   </g>
   <g id="patch_26">
    <path clip-path="url(#p2a081f5acb)" d="M 589.421312 499.637647 
L 642.989313 499.637647 
L 642.989313 486.314118 
L 589.421312 486.314118 
z
" style="fill:#a9aa35;stroke:#ffffff;stroke-linejoin:miter;"/>
   </g>
   <g id="patch_27">
    <path clip-path="url(#p2a081f5acb)" d="M 656.381313 499.637647 
L 709.949313 499.637647 
L 709.949313 459.667059 
L 656.381313 459.667059 
z
" style="fill:#2eabb8;stroke:#ffffff;stroke-linejoin:miter;"/>
   </g>
   <g id="line2d_23">
    <path clip-path="url(#p2a081f5acb)" d="M 0 0 
" style="fill:none;stroke:#424242;stroke-linecap:round;stroke-width:2.7;"/>
   </g>
   <g id="line2d_24">
    <path clip-path="url(#p2a081f5acb)" d="M 0 0 
" style="fill:none;stroke:#424242;stroke-linecap:round;stroke-width:2.7;"/>
   </g>
   <g id="line2d_25">
    <path clip-path="url(#p2a081f5acb)" d="M 0 0 
" style="fill:none;stroke:#424242;stroke-linecap:round;stroke-width:2.7;"/>
   </g>
   <g id="line2d_26">
    <path clip-path="url(#p2a081f5acb)" d="M 0 0 
" style="fill:none;stroke:#424242;stroke-linecap:round;stroke-width:2.7;"/>
   </g>
   <g id="line2d_27">
    <path clip-path="url(#p2a081f5acb)" d="M 0 0 
" style="fill:none;stroke:#424242;stroke-linecap:round;stroke-width:2.7;"/>
   </g>
   <g id="line2d_28">
    <path clip-path="url(#p2a081f5acb)" d="M 0 0 
" style="fill:none;stroke:#424242;stroke-linecap:round;stroke-width:2.7;"/>
   </g>
   <g id="line2d_29">
    <path clip-path="url(#p2a081f5acb)" d="M 0 0 
" style="fill:none;stroke:#424242;stroke-linecap:round;stroke-width:2.7;"/>
   </g>
   <g id="line2d_30">
    <path clip-path="url(#p2a081f5acb)" d="M 0 0 
" style="fill:none;stroke:#424242;stroke-linecap:round;stroke-width:2.7;"/>
   </g>
   <g id="line2d_31">
    <path clip-path="url(#p2a081f5acb)" d="M 0 0 
" style="fill:none;stroke:#424242;stroke-linecap:round;stroke-width:2.7;"/>
   </g>
   <g id="line2d_32">
    <path clip-path="url(#p2a081f5acb)" d="M 0 0 
" style="fill:none;stroke:#424242;stroke-linecap:round;stroke-width:2.7;"/>
   </g>
   <g id="patch_28">
    <path d="M 47.045313 499.637647 
L 47.045313 275.802353 
" style="fill:none;stroke:#cccccc;stroke-linecap:square;stroke-linejoin:miter;stroke-width:0.8;"/>
   </g>
   <g id="patch_29">
    <path d="M 716.645313 499.637647 
L 716.645313 275.802353 
" style="fill:none;stroke:#cccccc;stroke-linecap:square;stroke-linejoin:miter;stroke-width:0.8;"/>
   </g>
   <g id="patch_30">
    <path d="M 47.045313 499.637647 
L 716.645313 499.637647 
" style="fill:none;stroke:#cccccc;stroke-linecap:square;stroke-linejoin:miter;stroke-width:0.8;"/>
   </g>
   <g id="patch_31">
    <path d="M 47.045313 275.802353 
L 716.645313 275.802353 
" style="fill:none;stroke:#cccccc;stroke-linecap:square;stroke-linejoin:miter;stroke-width:0.8;"/>
   </g>
  </g>
  <g id="axes_3">
   <g id="patch_32">
    <path d="M 47.045313 768.24 
L 716.645313 768.24 
L 716.645313 544.404706 
L 47.045313 544.404706 
z
" style="fill:#ffffff;"/>
   </g>
   <g id="matplotlib.axis_5">
    <g id="xtick_21">
     <g id="text_35">
      <!-- QMS95041 -->
      <g style="fill:#262626;" transform="translate(55.233906 782.397812)scale(0.1 -0.1)">
       <use xlink:href="#ArialMT-81"/>
       <use x="77.783203" xlink:href="#ArialMT-77"/>
       <use x="161.083984" xlink:href="#ArialMT-83"/>
       <use x="227.783203" xlink:href="#ArialMT-57"/>
       <use x="283.398438" xlink:href="#ArialMT-53"/>
       <use x="339.013672" xlink:href="#ArialMT-48"/>
       <use x="394.628906" xlink:href="#ArialMT-52"/>
       <use x="450.244141" xlink:href="#ArialMT-49"/>
      </g>
     </g>
    </g>
    <g id="xtick_22">
     <g id="text_36">
      <!-- QNQ32127 -->
      <g style="fill:#262626;" transform="translate(122.193906 782.397812)scale(0.1 -0.1)">
       <use xlink:href="#ArialMT-81"/>
       <use x="77.783203" xlink:href="#ArialMT-78"/>
       <use x="150" xlink:href="#ArialMT-81"/>
       <use x="227.783203" xlink:href="#ArialMT-51"/>
       <use x="283.398438" xlink:href="#ArialMT-50"/>
       <use x="339.013672" xlink:href="#ArialMT-49"/>
       <use x="394.628906" xlink:href="#ArialMT-50"/>
       <use x="450.244141" xlink:href="#ArialMT-55"/>
      </g>
     </g>
    </g>
    <g id="xtick_23">
     <g id="text_37">
      <!-- QKS67443 -->
      <g style="fill:#262626;" transform="translate(189.983594 782.397812)scale(0.1 -0.1)">
       <use xlink:href="#ArialMT-81"/>
       <use x="77.783203" xlink:href="#ArialMT-75"/>
       <use x="144.482422" xlink:href="#ArialMT-83"/>
       <use x="211.181641" xlink:href="#ArialMT-54"/>
       <use x="266.796875" xlink:href="#ArialMT-55"/>
       <use x="322.412109" xlink:href="#ArialMT-52"/>
       <use x="378.027344" xlink:href="#ArialMT-52"/>
       <use x="433.642578" xlink:href="#ArialMT-51"/>
      </g>
     </g>
    </g>
    <g id="xtick_24">
     <g id="text_38">
      <!-- QNO71459 -->
      <g style="fill:#262626;" transform="translate(256.113906 782.397812)scale(0.1 -0.1)">
       <use xlink:href="#ArialMT-81"/>
       <use x="77.783203" xlink:href="#ArialMT-78"/>
       <use x="150" xlink:href="#ArialMT-79"/>
       <use x="227.783203" xlink:href="#ArialMT-55"/>
       <use x="283.398438" xlink:href="#ArialMT-49"/>
       <use x="339.013672" xlink:href="#ArialMT-52"/>
       <use x="394.628906" xlink:href="#ArialMT-53"/>
       <use x="450.244141" xlink:href="#ArialMT-57"/>
      </g>
     </g>
    </g>
    <g id="xtick_25">
     <g id="text_39">
      <!-- YP_009724390 -->
      <g style="fill:#262626;" transform="translate(313.890313 782.4275)scale(0.1 -0.1)">
       <use xlink:href="#ArialMT-89"/>
       <use x="66.699219" xlink:href="#ArialMT-80"/>
       <use x="133.398438" xlink:href="#ArialMT-95"/>
       <use x="189.013672" xlink:href="#ArialMT-48"/>
       <use x="244.628906" xlink:href="#ArialMT-48"/>
       <use x="300.244141" xlink:href="#ArialMT-57"/>
       <use x="355.859375" xlink:href="#ArialMT-55"/>
       <use x="411.474609" xlink:href="#ArialMT-50"/>
       <use x="467.089844" xlink:href="#ArialMT-52"/>
       <use x="522.705078" xlink:href="#ArialMT-51"/>
       <use x="578.320312" xlink:href="#ArialMT-57"/>
       <use x="633.935547" xlink:href="#ArialMT-48"/>
      </g>
     </g>
    </g>
    <g id="xtick_26">
     <g id="text_40">
      <!-- QKV38004 -->
      <g style="fill:#262626;" transform="translate(390.863594 782.397812)scale(0.1 -0.1)">
       <use xlink:href="#ArialMT-81"/>
       <use x="77.783203" xlink:href="#ArialMT-75"/>
       <use x="144.482422" xlink:href="#ArialMT-86"/>
       <use x="211.181641" xlink:href="#ArialMT-51"/>
       <use x="266.796875" xlink:href="#ArialMT-56"/>
       <use x="322.412109" xlink:href="#ArialMT-48"/>
       <use x="378.027344" xlink:href="#ArialMT-48"/>
       <use x="433.642578" xlink:href="#ArialMT-52"/>
      </g>
     </g>
    </g>
    <g id="xtick_27">
     <g id="text_41">
      <!-- QJR88113 -->
      <g style="fill:#262626;" transform="translate(458.751719 782.397812)scale(0.1 -0.1)">
       <use xlink:href="#ArialMT-81"/>
       <use x="77.783203" xlink:href="#ArialMT-74"/>
       <use x="127.783203" xlink:href="#ArialMT-82"/>
       <use x="200" xlink:href="#ArialMT-56"/>
       <use x="255.615234" xlink:href="#ArialMT-56"/>
       <use x="311.230469" xlink:href="#ArialMT-49"/>
       <use x="359.470703" xlink:href="#ArialMT-49"/>
       <use x="415.085938" xlink:href="#ArialMT-51"/>
      </g>
     </g>
    </g>
    <g id="xtick_28">
     <g id="text_42">
      <!-- QOP81043 -->
      <g style="fill:#262626;" transform="translate(524.229688 782.397812)scale(0.1 -0.1)">
       <use xlink:href="#ArialMT-81"/>
       <use x="77.783203" xlink:href="#ArialMT-79"/>
       <use x="155.566406" xlink:href="#ArialMT-80"/>
       <use x="222.265625" xlink:href="#ArialMT-56"/>
       <use x="277.880859" xlink:href="#ArialMT-49"/>
       <use x="333.496094" xlink:href="#ArialMT-48"/>
       <use x="389.111328" xlink:href="#ArialMT-52"/>
       <use x="444.726562" xlink:href="#ArialMT-51"/>
      </g>
     </g>
    </g>
    <g id="xtick_29">
     <g id="text_43">
      <!-- QHZ00379 -->
      <g style="fill:#262626;" transform="translate(591.749063 782.397812)scale(0.1 -0.1)">
       <use xlink:href="#ArialMT-81"/>
       <use x="77.783203" xlink:href="#ArialMT-72"/>
       <use x="150" xlink:href="#ArialMT-90"/>
       <use x="211.083984" xlink:href="#ArialMT-48"/>
       <use x="266.699219" xlink:href="#ArialMT-48"/>
       <use x="322.314453" xlink:href="#ArialMT-51"/>
       <use x="377.929688" xlink:href="#ArialMT-55"/>
       <use x="433.544922" xlink:href="#ArialMT-57"/>
      </g>
     </g>
    </g>
    <g id="xtick_30">
     <g id="text_44">
      <!-- QOW79940 -->
      <g style="fill:#262626;" transform="translate(656.765313 782.397812)scale(0.1 -0.1)">
       <use xlink:href="#ArialMT-81"/>
       <use x="77.783203" xlink:href="#ArialMT-79"/>
       <use x="155.566406" xlink:href="#ArialMT-87"/>
       <use x="249.951172" xlink:href="#ArialMT-55"/>
       <use x="305.566406" xlink:href="#ArialMT-57"/>
       <use x="361.181641" xlink:href="#ArialMT-57"/>
       <use x="416.796875" xlink:href="#ArialMT-52"/>
       <use x="472.412109" xlink:href="#ArialMT-48"/>
      </g>
     </g>
    </g>
   </g>
   <g id="matplotlib.axis_6">
    <g id="ytick_37">
     <g id="line2d_33">
      <path clip-path="url(#p6647be0e4b)" d="M 47.045313 768.24 
L 716.645313 768.24 
" style="fill:none;stroke:#cccccc;stroke-linecap:round;stroke-width:0.8;"/>
     </g>
     <g id="text_45">
      <!-- 0.00 -->
      <g style="fill:#262626;" transform="translate(20.584375 771.818906)scale(0.1 -0.1)">
       <defs>
        <path d="M 9.078125 0 
L 9.078125 10.015625 
L 19.09375 10.015625 
L 19.09375 0 
z
" id="ArialMT-46"/>
       </defs>
       <use xlink:href="#ArialMT-48"/>
       <use x="55.615234" xlink:href="#ArialMT-46"/>
       <use x="83.398438" xlink:href="#ArialMT-48"/>
       <use x="139.013672" xlink:href="#ArialMT-48"/>
      </g>
     </g>
    </g>
    <g id="ytick_38">
     <g id="line2d_34">
      <path clip-path="url(#p6647be0e4b)" d="M 47.045313 732.968984 
L 716.645313 732.968984 
" style="fill:none;stroke:#cccccc;stroke-linecap:round;stroke-width:0.8;"/>
     </g>
     <g id="text_46">
      <!-- 0.02 -->
      <g style="fill:#262626;" transform="translate(20.584375 736.54789)scale(0.1 -0.1)">
       <use xlink:href="#ArialMT-48"/>
       <use x="55.615234" xlink:href="#ArialMT-46"/>
       <use x="83.398438" xlink:href="#ArialMT-48"/>
       <use x="139.013672" xlink:href="#ArialMT-50"/>
      </g>
     </g>
    </g>
    <g id="ytick_39">
     <g id="line2d_35">
      <path clip-path="url(#p6647be0e4b)" d="M 47.045313 697.697968 
L 716.645313 697.697968 
" style="fill:none;stroke:#cccccc;stroke-linecap:round;stroke-width:0.8;"/>
     </g>
     <g id="text_47">
      <!-- 0.04 -->
      <g style="fill:#262626;" transform="translate(20.584375 701.276874)scale(0.1 -0.1)">
       <use xlink:href="#ArialMT-48"/>
       <use x="55.615234" xlink:href="#ArialMT-46"/>
       <use x="83.398438" xlink:href="#ArialMT-48"/>
       <use x="139.013672" xlink:href="#ArialMT-52"/>
      </g>
     </g>
    </g>
    <g id="ytick_40">
     <g id="line2d_36">
      <path clip-path="url(#p6647be0e4b)" d="M 47.045313 662.426952 
L 716.645313 662.426952 
" style="fill:none;stroke:#cccccc;stroke-linecap:round;stroke-width:0.8;"/>
     </g>
     <g id="text_48">
      <!-- 0.06 -->
      <g style="fill:#262626;" transform="translate(20.584375 666.005858)scale(0.1 -0.1)">
       <use xlink:href="#ArialMT-48"/>
       <use x="55.615234" xlink:href="#ArialMT-46"/>
       <use x="83.398438" xlink:href="#ArialMT-48"/>
       <use x="139.013672" xlink:href="#ArialMT-54"/>
      </g>
     </g>
    </g>
    <g id="ytick_41">
     <g id="line2d_37">
      <path clip-path="url(#p6647be0e4b)" d="M 47.045313 627.155936 
L 716.645313 627.155936 
" style="fill:none;stroke:#cccccc;stroke-linecap:round;stroke-width:0.8;"/>
     </g>
     <g id="text_49">
      <!-- 0.08 -->
      <g style="fill:#262626;" transform="translate(20.584375 630.734842)scale(0.1 -0.1)">
       <use xlink:href="#ArialMT-48"/>
       <use x="55.615234" xlink:href="#ArialMT-46"/>
       <use x="83.398438" xlink:href="#ArialMT-48"/>
       <use x="139.013672" xlink:href="#ArialMT-56"/>
      </g>
     </g>
    </g>
    <g id="ytick_42">
     <g id="line2d_38">
      <path clip-path="url(#p6647be0e4b)" d="M 47.045313 591.88492 
L 716.645313 591.88492 
" style="fill:none;stroke:#cccccc;stroke-linecap:round;stroke-width:0.8;"/>
     </g>
     <g id="text_50">
      <!-- 0.10 -->
      <g style="fill:#262626;" transform="translate(20.584375 595.463826)scale(0.1 -0.1)">
       <use xlink:href="#ArialMT-48"/>
       <use x="55.615234" xlink:href="#ArialMT-46"/>
       <use x="83.398438" xlink:href="#ArialMT-49"/>
       <use x="139.013672" xlink:href="#ArialMT-48"/>
      </g>
     </g>
    </g>
    <g id="ytick_43">
     <g id="line2d_39">
      <path clip-path="url(#p6647be0e4b)" d="M 47.045313 556.613904 
L 716.645313 556.613904 
" style="fill:none;stroke:#cccccc;stroke-linecap:round;stroke-width:0.8;"/>
     </g>
     <g id="text_51">
      <!-- 0.12 -->
      <g style="fill:#262626;" transform="translate(20.584375 560.19281)scale(0.1 -0.1)">
       <use xlink:href="#ArialMT-48"/>
       <use x="55.615234" xlink:href="#ArialMT-46"/>
       <use x="83.398438" xlink:href="#ArialMT-49"/>
       <use x="139.013672" xlink:href="#ArialMT-50"/>
      </g>
     </g>
    </g>
    <g id="text_52">
     <!-- Ilość zmian na dzień względem sekwencji referencyjnej -->
     <g style="fill:#262626;" transform="translate(14.479688 778.593447)rotate(-90)scale(0.1 -0.1)">
      <defs>
       <path d="M 6.59375 0 
L 6.59375 51.859375 
L 14.5 51.859375 
L 14.5 44.484375 
Q 20.21875 53.03125 31 53.03125 
Q 35.6875 53.03125 39.625 51.34375 
Q 43.5625 49.65625 45.515625 46.921875 
Q 47.46875 44.1875 48.25 40.4375 
Q 48.734375 37.984375 48.734375 31.890625 
L 48.734375 0 
L 39.9375 0 
L 39.9375 31.546875 
Q 39.9375 36.921875 38.90625 39.578125 
Q 37.890625 42.234375 35.28125 43.8125 
Q 32.671875 45.40625 29.15625 45.40625 
Q 23.53125 45.40625 19.453125 41.84375 
Q 15.375 38.28125 15.375 28.328125 
L 15.375 0 
z
M 21.875 58.296875 
L 28.375 71.96875 
L 39.890625 71.96875 
L 29.15625 58.296875 
z
" id="ArialMT-324"/>
      </defs>
      <use xlink:href="#ArialMT-73"/>
      <use x="27.783203" xlink:href="#ArialMT-108"/>
      <use x="50" xlink:href="#ArialMT-111"/>
      <use x="105.615234" xlink:href="#ArialMT-347"/>
      <use x="155.615234" xlink:href="#ArialMT-263"/>
      <use x="205.615234" xlink:href="#ArialMT-32"/>
      <use x="233.398438" xlink:href="#ArialMT-122"/>
      <use x="283.398438" xlink:href="#ArialMT-109"/>
      <use x="366.699219" xlink:href="#ArialMT-105"/>
      <use x="388.916016" xlink:href="#ArialMT-97"/>
      <use x="444.53125" xlink:href="#ArialMT-110"/>
      <use x="500.146484" xlink:href="#ArialMT-32"/>
      <use x="527.929688" xlink:href="#ArialMT-110"/>
      <use x="583.544922" xlink:href="#ArialMT-97"/>
      <use x="639.160156" xlink:href="#ArialMT-32"/>
      <use x="666.943359" xlink:href="#ArialMT-100"/>
      <use x="722.558594" xlink:href="#ArialMT-122"/>
      <use x="772.558594" xlink:href="#ArialMT-105"/>
      <use x="794.775391" xlink:href="#ArialMT-101"/>
      <use x="850.390625" xlink:href="#ArialMT-324"/>
      <use x="906.005859" xlink:href="#ArialMT-32"/>
      <use x="933.789062" xlink:href="#ArialMT-119"/>
      <use x="1006.005859" xlink:href="#ArialMT-122"/>
      <use x="1056.005859" xlink:href="#ArialMT-103"/>
      <use x="1111.621094" xlink:href="#ArialMT-108"/>
      <use x="1133.837891" xlink:href="#ArialMT-281"/>
      <use x="1189.453125" xlink:href="#ArialMT-100"/>
      <use x="1245.068359" xlink:href="#ArialMT-101"/>
      <use x="1300.683594" xlink:href="#ArialMT-109"/>
      <use x="1383.984375" xlink:href="#ArialMT-32"/>
      <use x="1411.767578" xlink:href="#ArialMT-115"/>
      <use x="1461.767578" xlink:href="#ArialMT-101"/>
      <use x="1517.382812" xlink:href="#ArialMT-107"/>
      <use x="1567.382812" xlink:href="#ArialMT-119"/>
      <use x="1639.599609" xlink:href="#ArialMT-101"/>
      <use x="1695.214844" xlink:href="#ArialMT-110"/>
      <use x="1750.830078" xlink:href="#ArialMT-99"/>
      <use x="1800.830078" xlink:href="#ArialMT-106"/>
      <use x="1823.046875" xlink:href="#ArialMT-105"/>
      <use x="1845.263672" xlink:href="#ArialMT-32"/>
      <use x="1873.046875" xlink:href="#ArialMT-114"/>
      <use x="1906.347656" xlink:href="#ArialMT-101"/>
      <use x="1961.962891" xlink:href="#ArialMT-102"/>
      <use x="1989.746094" xlink:href="#ArialMT-101"/>
      <use x="2045.361328" xlink:href="#ArialMT-114"/>
      <use x="2078.662109" xlink:href="#ArialMT-101"/>
      <use x="2134.277344" xlink:href="#ArialMT-110"/>
      <use x="2189.892578" xlink:href="#ArialMT-99"/>
      <use x="2239.892578" xlink:href="#ArialMT-121"/>
      <use x="2289.892578" xlink:href="#ArialMT-106"/>
      <use x="2312.109375" xlink:href="#ArialMT-110"/>
      <use x="2367.724609" xlink:href="#ArialMT-101"/>
      <use x="2423.339844" xlink:href="#ArialMT-106"/>
     </g>
    </g>
   </g>
   <g id="patch_33">
    <path clip-path="url(#p6647be0e4b)" d="M 53.741313 768.24 
L 107.309313 768.24 
L 107.309313 582.603073 
L 53.741313 582.603073 
z
" style="fill:#3274a1;stroke:#ffffff;stroke-linejoin:miter;"/>
   </g>
   <g id="patch_34">
    <path clip-path="url(#p6647be0e4b)" d="M 120.701313 768.24 
L 174.269313 768.24 
L 174.269313 713.80942 
L 120.701313 713.80942 
z
" style="fill:#e1812c;stroke:#ffffff;stroke-linejoin:miter;"/>
   </g>
   <g id="patch_35">
    <path clip-path="url(#p6647be0e4b)" d="M 187.661313 768.24 
L 241.229313 768.24 
L 241.229313 555.063529 
L 187.661313 555.063529 
z
" style="fill:#3a923a;stroke:#ffffff;stroke-linejoin:miter;"/>
   </g>
   <g id="patch_36">
    <path clip-path="url(#p6647be0e4b)" d="M 254.621313 768.24 
L 308.189313 768.24 
L 308.189313 674.600134 
L 254.621313 674.600134 
z
" style="fill:#c03d3e;stroke:#ffffff;stroke-linejoin:miter;"/>
   </g>
   <g id="patch_37">
    <path clip-path="url(#p6647be0e4b)" d="M 321.581313 768.24 
L 375.149313 768.24 
L 375.149313 768.24 
L 321.581313 768.24 
z
" style="fill:#9372b2;stroke:#ffffff;stroke-linejoin:miter;"/>
   </g>
   <g id="patch_38">
    <path clip-path="url(#p6647be0e4b)" d="M 388.541313 768.24 
L 442.109312 768.24 
L 442.109312 654.462529 
L 388.541313 654.462529 
z
" style="fill:#845b53;stroke:#ffffff;stroke-linejoin:miter;"/>
   </g>
   <g id="patch_39">
    <path clip-path="url(#p6647be0e4b)" d="M 455.501313 768.24 
L 509.069313 768.24 
L 509.069313 736.748021 
L 455.501313 736.748021 
z
" style="fill:#d684bd;stroke:#ffffff;stroke-linejoin:miter;"/>
   </g>
   <g id="patch_40">
    <path clip-path="url(#p6647be0e4b)" d="M 522.461313 768.24 
L 576.029313 768.24 
L 576.029313 597.573793 
L 522.461313 597.573793 
z
" style="fill:#7f7f7f;stroke:#ffffff;stroke-linejoin:miter;"/>
   </g>
   <g id="patch_41">
    <path clip-path="url(#p6647be0e4b)" d="M 589.421312 768.24 
L 642.989313 768.24 
L 642.989313 711.351264 
L 589.421312 711.351264 
z
" style="fill:#a9aa35;stroke:#ffffff;stroke-linejoin:miter;"/>
   </g>
   <g id="patch_42">
    <path clip-path="url(#p6647be0e4b)" d="M 656.381313 768.24 
L 709.949313 768.24 
L 709.949313 738.007701 
L 656.381313 738.007701 
z
" style="fill:#2eabb8;stroke:#ffffff;stroke-linejoin:miter;"/>
   </g>
   <g id="line2d_40">
    <path clip-path="url(#p6647be0e4b)" d="M 0 0 
" style="fill:none;stroke:#424242;stroke-linecap:round;stroke-width:2.7;"/>
   </g>
   <g id="line2d_41">
    <path clip-path="url(#p6647be0e4b)" d="M 0 0 
" style="fill:none;stroke:#424242;stroke-linecap:round;stroke-width:2.7;"/>
   </g>
   <g id="line2d_42">
    <path clip-path="url(#p6647be0e4b)" d="M 0 0 
" style="fill:none;stroke:#424242;stroke-linecap:round;stroke-width:2.7;"/>
   </g>
   <g id="line2d_43">
    <path clip-path="url(#p6647be0e4b)" d="M 0 0 
" style="fill:none;stroke:#424242;stroke-linecap:round;stroke-width:2.7;"/>
   </g>
   <g id="line2d_44">
    <path clip-path="url(#p6647be0e4b)" d="M 0 0 
" style="fill:none;stroke:#424242;stroke-linecap:round;stroke-width:2.7;"/>
   </g>
   <g id="line2d_45">
    <path clip-path="url(#p6647be0e4b)" d="M 0 0 
" style="fill:none;stroke:#424242;stroke-linecap:round;stroke-width:2.7;"/>
   </g>
   <g id="line2d_46">
    <path clip-path="url(#p6647be0e4b)" d="M 0 0 
" style="fill:none;stroke:#424242;stroke-linecap:round;stroke-width:2.7;"/>
   </g>
   <g id="line2d_47">
    <path clip-path="url(#p6647be0e4b)" d="M 0 0 
" style="fill:none;stroke:#424242;stroke-linecap:round;stroke-width:2.7;"/>
   </g>
   <g id="line2d_48">
    <path clip-path="url(#p6647be0e4b)" d="M 0 0 
" style="fill:none;stroke:#424242;stroke-linecap:round;stroke-width:2.7;"/>
   </g>
   <g id="line2d_49">
    <path clip-path="url(#p6647be0e4b)" d="M 0 0 
" style="fill:none;stroke:#424242;stroke-linecap:round;stroke-width:2.7;"/>
   </g>
   <g id="patch_43">
    <path d="M 47.045313 768.24 
L 47.045313 544.404706 
" style="fill:none;stroke:#cccccc;stroke-linecap:square;stroke-linejoin:miter;stroke-width:0.8;"/>
   </g>
   <g id="patch_44">
    <path d="M 716.645313 768.24 
L 716.645313 544.404706 
" style="fill:none;stroke:#cccccc;stroke-linecap:square;stroke-linejoin:miter;stroke-width:0.8;"/>
   </g>
   <g id="patch_45">
    <path d="M 47.045313 768.24 
L 716.645313 768.24 
" style="fill:none;stroke:#cccccc;stroke-linecap:square;stroke-linejoin:miter;stroke-width:0.8;"/>
   </g>
   <g id="patch_46">
    <path d="M 47.045313 544.404706 
L 716.645313 544.404706 
" style="fill:none;stroke:#cccccc;stroke-linecap:square;stroke-linejoin:miter;stroke-width:0.8;"/>
   </g>
  </g>
 </g>
 <defs>
  <clipPath id="p3fbd139a8c">
   <rect height="223.835294" width="669.6" x="47.045313" y="7.2"/>
  </clipPath>
  <clipPath id="p2a081f5acb">
   <rect height="223.835294" width="669.6" x="47.045313" y="275.802353"/>
  </clipPath>
  <clipPath id="p6647be0e4b">
   <rect height="223.835294" width="669.6" x="47.045313" y="544.404706"/>
  </clipPath>
 </defs>
</svg>
