<?xml version="1.0" encoding="utf-8" standalone="no"?>
<!DOCTYPE svg PUBLIC "-//W3C//DTD SVG 1.1//EN"
  "http://www.w3.org/Graphics/SVG/1.1/DTD/svg11.dtd">
<!-- Created with matplotlib (https://matplotlib.org/) -->
<svg height="432pt" version="1.1" viewBox="0 0 720 432" width="720pt" xmlns="http://www.w3.org/2000/svg" xmlns:xlink="http://www.w3.org/1999/xlink">
 <metadata>
  <rdf:RDF xmlns:cc="http://creativecommons.org/ns#" xmlns:dc="http://purl.org/dc/elements/1.1/" xmlns:rdf="http://www.w3.org/1999/02/22-rdf-syntax-ns#">
   <cc:Work>
    <dc:type rdf:resource="http://purl.org/dc/dcmitype/StillImage"/>
    <dc:date>2021-01-09T19:39:39.680789</dc:date>
    <dc:format>image/svg+xml</dc:format>
    <dc:creator>
     <cc:Agent>
      <dc:title>Matplotlib v3.3.2, https://matplotlib.org/</dc:title>
     </cc:Agent>
    </dc:creator>
   </cc:Work>
  </rdf:RDF>
 </metadata>
 <defs>
  <style type="text/css">*{stroke-linecap:butt;stroke-linejoin:round;}</style>
 </defs>
 <g id="figure_1">
  <g id="patch_1">
   <path d="M 0 432 
L 720 432 
L 720 0 
L 0 0 
z
" style="fill:none;"/>
  </g>
  <g id="axes_1">
   <g id="patch_2">
    <path d="M 90 378 
L 648 378 
L 648 51.84 
L 90 51.84 
z
" style="fill:#ffffff;"/>
   </g>
   <g id="matplotlib.axis_1">
    <g id="xtick_1">
     <g id="line2d_1">
      <defs>
       <path d="M 0 0 
L 0 3.5 
" id="mc5e226e36b" style="stroke:#000000;stroke-width:0.8;"/>
      </defs>
      <g>
       <use style="stroke:#000000;stroke-width:0.8;" x="114.129396" xlink:href="#mc5e226e36b" y="378"/>
      </g>
     </g>
     <g id="text_1">
      <!-- 0 -->
      <g transform="translate(110.948146 392.598437)scale(0.1 -0.1)">
       <defs>
        <path d="M 31.78125 66.40625 
Q 24.171875 66.40625 20.328125 58.90625 
Q 16.5 51.421875 16.5 36.375 
Q 16.5 21.390625 20.328125 13.890625 
Q 24.171875 6.390625 31.78125 6.390625 
Q 39.453125 6.390625 43.28125 13.890625 
Q 47.125 21.390625 47.125 36.375 
Q 47.125 51.421875 43.28125 58.90625 
Q 39.453125 66.40625 31.78125 66.40625 
z
M 31.78125 74.21875 
Q 44.046875 74.21875 50.515625 64.515625 
Q 56.984375 54.828125 56.984375 36.375 
Q 56.984375 17.96875 50.515625 8.265625 
Q 44.046875 -1.421875 31.78125 -1.421875 
Q 19.53125 -1.421875 13.0625 8.265625 
Q 6.59375 17.96875 6.59375 36.375 
Q 6.59375 54.828125 13.0625 64.515625 
Q 19.53125 74.21875 31.78125 74.21875 
z
" id="DejaVuSans-48"/>
       </defs>
       <use xlink:href="#DejaVuSans-48"/>
      </g>
     </g>
    </g>
    <g id="xtick_2">
     <g id="line2d_2">
      <g>
       <use style="stroke:#000000;stroke-width:0.8;" x="237.553417" xlink:href="#mc5e226e36b" y="378"/>
      </g>
     </g>
     <g id="text_2">
      <!-- 100 -->
      <g transform="translate(228.009667 392.598437)scale(0.1 -0.1)">
       <defs>
        <path d="M 12.40625 8.296875 
L 28.515625 8.296875 
L 28.515625 63.921875 
L 10.984375 60.40625 
L 10.984375 69.390625 
L 28.421875 72.90625 
L 38.28125 72.90625 
L 38.28125 8.296875 
L 54.390625 8.296875 
L 54.390625 0 
L 12.40625 0 
z
" id="DejaVuSans-49"/>
       </defs>
       <use xlink:href="#DejaVuSans-49"/>
       <use x="63.623047" xlink:href="#DejaVuSans-48"/>
       <use x="127.246094" xlink:href="#DejaVuSans-48"/>
      </g>
     </g>
    </g>
    <g id="xtick_3">
     <g id="line2d_3">
      <g>
       <use style="stroke:#000000;stroke-width:0.8;" x="360.977439" xlink:href="#mc5e226e36b" y="378"/>
      </g>
     </g>
     <g id="text_3">
      <!-- 200 -->
      <g transform="translate(351.433689 392.598437)scale(0.1 -0.1)">
       <defs>
        <path d="M 19.1875 8.296875 
L 53.609375 8.296875 
L 53.609375 0 
L 7.328125 0 
L 7.328125 8.296875 
Q 12.9375 14.109375 22.625 23.890625 
Q 32.328125 33.6875 34.8125 36.53125 
Q 39.546875 41.84375 41.421875 45.53125 
Q 43.3125 49.21875 43.3125 52.78125 
Q 43.3125 58.59375 39.234375 62.25 
Q 35.15625 65.921875 28.609375 65.921875 
Q 23.96875 65.921875 18.8125 64.3125 
Q 13.671875 62.703125 7.8125 59.421875 
L 7.8125 69.390625 
Q 13.765625 71.78125 18.9375 73 
Q 24.125 74.21875 28.421875 74.21875 
Q 39.75 74.21875 46.484375 68.546875 
Q 53.21875 62.890625 53.21875 53.421875 
Q 53.21875 48.921875 51.53125 44.890625 
Q 49.859375 40.875 45.40625 35.40625 
Q 44.1875 33.984375 37.640625 27.21875 
Q 31.109375 20.453125 19.1875 8.296875 
z
" id="DejaVuSans-50"/>
       </defs>
       <use xlink:href="#DejaVuSans-50"/>
       <use x="63.623047" xlink:href="#DejaVuSans-48"/>
       <use x="127.246094" xlink:href="#DejaVuSans-48"/>
      </g>
     </g>
    </g>
    <g id="xtick_4">
     <g id="line2d_4">
      <g>
       <use style="stroke:#000000;stroke-width:0.8;" x="484.40146" xlink:href="#mc5e226e36b" y="378"/>
      </g>
     </g>
     <g id="text_4">
      <!-- 300 -->
      <g transform="translate(474.85771 392.598437)scale(0.1 -0.1)">
       <defs>
        <path d="M 40.578125 39.3125 
Q 47.65625 37.796875 51.625 33 
Q 55.609375 28.21875 55.609375 21.1875 
Q 55.609375 10.40625 48.1875 4.484375 
Q 40.765625 -1.421875 27.09375 -1.421875 
Q 22.515625 -1.421875 17.65625 -0.515625 
Q 12.796875 0.390625 7.625 2.203125 
L 7.625 11.71875 
Q 11.71875 9.328125 16.59375 8.109375 
Q 21.484375 6.890625 26.8125 6.890625 
Q 36.078125 6.890625 40.9375 10.546875 
Q 45.796875 14.203125 45.796875 21.1875 
Q 45.796875 27.640625 41.28125 31.265625 
Q 36.765625 34.90625 28.71875 34.90625 
L 20.21875 34.90625 
L 20.21875 43.015625 
L 29.109375 43.015625 
Q 36.375 43.015625 40.234375 45.921875 
Q 44.09375 48.828125 44.09375 54.296875 
Q 44.09375 59.90625 40.109375 62.90625 
Q 36.140625 65.921875 28.71875 65.921875 
Q 24.65625 65.921875 20.015625 65.03125 
Q 15.375 64.15625 9.8125 62.3125 
L 9.8125 71.09375 
Q 15.4375 72.65625 20.34375 73.4375 
Q 25.25 74.21875 29.59375 74.21875 
Q 40.828125 74.21875 47.359375 69.109375 
Q 53.90625 64.015625 53.90625 55.328125 
Q 53.90625 49.265625 50.4375 45.09375 
Q 46.96875 40.921875 40.578125 39.3125 
z
" id="DejaVuSans-51"/>
       </defs>
       <use xlink:href="#DejaVuSans-51"/>
       <use x="63.623047" xlink:href="#DejaVuSans-48"/>
       <use x="127.246094" xlink:href="#DejaVuSans-48"/>
      </g>
     </g>
    </g>
    <g id="xtick_5">
     <g id="line2d_5">
      <g>
       <use style="stroke:#000000;stroke-width:0.8;" x="607.825481" xlink:href="#mc5e226e36b" y="378"/>
      </g>
     </g>
     <g id="text_5">
      <!-- 400 -->
      <g transform="translate(598.281731 392.598437)scale(0.1 -0.1)">
       <defs>
        <path d="M 37.796875 64.3125 
L 12.890625 25.390625 
L 37.796875 25.390625 
z
M 35.203125 72.90625 
L 47.609375 72.90625 
L 47.609375 25.390625 
L 58.015625 25.390625 
L 58.015625 17.1875 
L 47.609375 17.1875 
L 47.609375 0 
L 37.796875 0 
L 37.796875 17.1875 
L 4.890625 17.1875 
L 4.890625 26.703125 
z
" id="DejaVuSans-52"/>
       </defs>
       <use xlink:href="#DejaVuSans-52"/>
       <use x="63.623047" xlink:href="#DejaVuSans-48"/>
       <use x="127.246094" xlink:href="#DejaVuSans-48"/>
      </g>
     </g>
    </g>
    <g id="text_6">
     <!-- Alignment position -->
     <g transform="translate(321.989062 406.276563)scale(0.1 -0.1)">
      <defs>
       <path d="M 34.1875 63.1875 
L 20.796875 26.90625 
L 47.609375 26.90625 
z
M 28.609375 72.90625 
L 39.796875 72.90625 
L 67.578125 0 
L 57.328125 0 
L 50.6875 18.703125 
L 17.828125 18.703125 
L 11.1875 0 
L 0.78125 0 
z
" id="DejaVuSans-65"/>
       <path d="M 9.421875 75.984375 
L 18.40625 75.984375 
L 18.40625 0 
L 9.421875 0 
z
" id="DejaVuSans-108"/>
       <path d="M 9.421875 54.6875 
L 18.40625 54.6875 
L 18.40625 0 
L 9.421875 0 
z
M 9.421875 75.984375 
L 18.40625 75.984375 
L 18.40625 64.59375 
L 9.421875 64.59375 
z
" id="DejaVuSans-105"/>
       <path d="M 45.40625 27.984375 
Q 45.40625 37.75 41.375 43.109375 
Q 37.359375 48.484375 30.078125 48.484375 
Q 22.859375 48.484375 18.828125 43.109375 
Q 14.796875 37.75 14.796875 27.984375 
Q 14.796875 18.265625 18.828125 12.890625 
Q 22.859375 7.515625 30.078125 7.515625 
Q 37.359375 7.515625 41.375 12.890625 
Q 45.40625 18.265625 45.40625 27.984375 
z
M 54.390625 6.78125 
Q 54.390625 -7.171875 48.1875 -13.984375 
Q 42 -20.796875 29.203125 -20.796875 
Q 24.46875 -20.796875 20.265625 -20.09375 
Q 16.0625 -19.390625 12.109375 -17.921875 
L 12.109375 -9.1875 
Q 16.0625 -11.328125 19.921875 -12.34375 
Q 23.78125 -13.375 27.78125 -13.375 
Q 36.625 -13.375 41.015625 -8.765625 
Q 45.40625 -4.15625 45.40625 5.171875 
L 45.40625 9.625 
Q 42.625 4.78125 38.28125 2.390625 
Q 33.9375 0 27.875 0 
Q 17.828125 0 11.671875 7.65625 
Q 5.515625 15.328125 5.515625 27.984375 
Q 5.515625 40.671875 11.671875 48.328125 
Q 17.828125 56 27.875 56 
Q 33.9375 56 38.28125 53.609375 
Q 42.625 51.21875 45.40625 46.390625 
L 45.40625 54.6875 
L 54.390625 54.6875 
z
" id="DejaVuSans-103"/>
       <path d="M 54.890625 33.015625 
L 54.890625 0 
L 45.90625 0 
L 45.90625 32.71875 
Q 45.90625 40.484375 42.875 44.328125 
Q 39.84375 48.1875 33.796875 48.1875 
Q 26.515625 48.1875 22.3125 43.546875 
Q 18.109375 38.921875 18.109375 30.90625 
L 18.109375 0 
L 9.078125 0 
L 9.078125 54.6875 
L 18.109375 54.6875 
L 18.109375 46.1875 
Q 21.34375 51.125 25.703125 53.5625 
Q 30.078125 56 35.796875 56 
Q 45.21875 56 50.046875 50.171875 
Q 54.890625 44.34375 54.890625 33.015625 
z
" id="DejaVuSans-110"/>
       <path d="M 52 44.1875 
Q 55.375 50.25 60.0625 53.125 
Q 64.75 56 71.09375 56 
Q 79.640625 56 84.28125 50.015625 
Q 88.921875 44.046875 88.921875 33.015625 
L 88.921875 0 
L 79.890625 0 
L 79.890625 32.71875 
Q 79.890625 40.578125 77.09375 44.375 
Q 74.3125 48.1875 68.609375 48.1875 
Q 61.625 48.1875 57.5625 43.546875 
Q 53.515625 38.921875 53.515625 30.90625 
L 53.515625 0 
L 44.484375 0 
L 44.484375 32.71875 
Q 44.484375 40.625 41.703125 44.40625 
Q 38.921875 48.1875 33.109375 48.1875 
Q 26.21875 48.1875 22.15625 43.53125 
Q 18.109375 38.875 18.109375 30.90625 
L 18.109375 0 
L 9.078125 0 
L 9.078125 54.6875 
L 18.109375 54.6875 
L 18.109375 46.1875 
Q 21.1875 51.21875 25.484375 53.609375 
Q 29.78125 56 35.6875 56 
Q 41.65625 56 45.828125 52.96875 
Q 50 49.953125 52 44.1875 
z
" id="DejaVuSans-109"/>
       <path d="M 56.203125 29.59375 
L 56.203125 25.203125 
L 14.890625 25.203125 
Q 15.484375 15.921875 20.484375 11.0625 
Q 25.484375 6.203125 34.421875 6.203125 
Q 39.59375 6.203125 44.453125 7.46875 
Q 49.3125 8.734375 54.109375 11.28125 
L 54.109375 2.78125 
Q 49.265625 0.734375 44.1875 -0.34375 
Q 39.109375 -1.421875 33.890625 -1.421875 
Q 20.796875 -1.421875 13.15625 6.1875 
Q 5.515625 13.8125 5.515625 26.8125 
Q 5.515625 40.234375 12.765625 48.109375 
Q 20.015625 56 32.328125 56 
Q 43.359375 56 49.78125 48.890625 
Q 56.203125 41.796875 56.203125 29.59375 
z
M 47.21875 32.234375 
Q 47.125 39.59375 43.09375 43.984375 
Q 39.0625 48.390625 32.421875 48.390625 
Q 24.90625 48.390625 20.390625 44.140625 
Q 15.875 39.890625 15.1875 32.171875 
z
" id="DejaVuSans-101"/>
       <path d="M 18.3125 70.21875 
L 18.3125 54.6875 
L 36.8125 54.6875 
L 36.8125 47.703125 
L 18.3125 47.703125 
L 18.3125 18.015625 
Q 18.3125 11.328125 20.140625 9.421875 
Q 21.96875 7.515625 27.59375 7.515625 
L 36.8125 7.515625 
L 36.8125 0 
L 27.59375 0 
Q 17.1875 0 13.234375 3.875 
Q 9.28125 7.765625 9.28125 18.015625 
L 9.28125 47.703125 
L 2.6875 47.703125 
L 2.6875 54.6875 
L 9.28125 54.6875 
L 9.28125 70.21875 
z
" id="DejaVuSans-116"/>
       <path id="DejaVuSans-32"/>
       <path d="M 18.109375 8.203125 
L 18.109375 -20.796875 
L 9.078125 -20.796875 
L 9.078125 54.6875 
L 18.109375 54.6875 
L 18.109375 46.390625 
Q 20.953125 51.265625 25.265625 53.625 
Q 29.59375 56 35.59375 56 
Q 45.5625 56 51.78125 48.09375 
Q 58.015625 40.1875 58.015625 27.296875 
Q 58.015625 14.40625 51.78125 6.484375 
Q 45.5625 -1.421875 35.59375 -1.421875 
Q 29.59375 -1.421875 25.265625 0.953125 
Q 20.953125 3.328125 18.109375 8.203125 
z
M 48.6875 27.296875 
Q 48.6875 37.203125 44.609375 42.84375 
Q 40.53125 48.484375 33.40625 48.484375 
Q 26.265625 48.484375 22.1875 42.84375 
Q 18.109375 37.203125 18.109375 27.296875 
Q 18.109375 17.390625 22.1875 11.75 
Q 26.265625 6.109375 33.40625 6.109375 
Q 40.53125 6.109375 44.609375 11.75 
Q 48.6875 17.390625 48.6875 27.296875 
z
" id="DejaVuSans-112"/>
       <path d="M 30.609375 48.390625 
Q 23.390625 48.390625 19.1875 42.75 
Q 14.984375 37.109375 14.984375 27.296875 
Q 14.984375 17.484375 19.15625 11.84375 
Q 23.34375 6.203125 30.609375 6.203125 
Q 37.796875 6.203125 41.984375 11.859375 
Q 46.1875 17.53125 46.1875 27.296875 
Q 46.1875 37.015625 41.984375 42.703125 
Q 37.796875 48.390625 30.609375 48.390625 
z
M 30.609375 56 
Q 42.328125 56 49.015625 48.375 
Q 55.71875 40.765625 55.71875 27.296875 
Q 55.71875 13.875 49.015625 6.21875 
Q 42.328125 -1.421875 30.609375 -1.421875 
Q 18.84375 -1.421875 12.171875 6.21875 
Q 5.515625 13.875 5.515625 27.296875 
Q 5.515625 40.765625 12.171875 48.375 
Q 18.84375 56 30.609375 56 
z
" id="DejaVuSans-111"/>
       <path d="M 44.28125 53.078125 
L 44.28125 44.578125 
Q 40.484375 46.53125 36.375 47.5 
Q 32.28125 48.484375 27.875 48.484375 
Q 21.1875 48.484375 17.84375 46.4375 
Q 14.5 44.390625 14.5 40.28125 
Q 14.5 37.15625 16.890625 35.375 
Q 19.28125 33.59375 26.515625 31.984375 
L 29.59375 31.296875 
Q 39.15625 29.25 43.1875 25.515625 
Q 47.21875 21.78125 47.21875 15.09375 
Q 47.21875 7.46875 41.1875 3.015625 
Q 35.15625 -1.421875 24.609375 -1.421875 
Q 20.21875 -1.421875 15.453125 -0.5625 
Q 10.6875 0.296875 5.421875 2 
L 5.421875 11.28125 
Q 10.40625 8.6875 15.234375 7.390625 
Q 20.0625 6.109375 24.8125 6.109375 
Q 31.15625 6.109375 34.5625 8.28125 
Q 37.984375 10.453125 37.984375 14.40625 
Q 37.984375 18.0625 35.515625 20.015625 
Q 33.0625 21.96875 24.703125 23.78125 
L 21.578125 24.515625 
Q 13.234375 26.265625 9.515625 29.90625 
Q 5.8125 33.546875 5.8125 39.890625 
Q 5.8125 47.609375 11.28125 51.796875 
Q 16.75 56 26.8125 56 
Q 31.78125 56 36.171875 55.265625 
Q 40.578125 54.546875 44.28125 53.078125 
z
" id="DejaVuSans-115"/>
      </defs>
      <use xlink:href="#DejaVuSans-65"/>
      <use x="68.408203" xlink:href="#DejaVuSans-108"/>
      <use x="96.191406" xlink:href="#DejaVuSans-105"/>
      <use x="123.974609" xlink:href="#DejaVuSans-103"/>
      <use x="187.451172" xlink:href="#DejaVuSans-110"/>
      <use x="250.830078" xlink:href="#DejaVuSans-109"/>
      <use x="348.242188" xlink:href="#DejaVuSans-101"/>
      <use x="409.765625" xlink:href="#DejaVuSans-110"/>
      <use x="473.144531" xlink:href="#DejaVuSans-116"/>
      <use x="512.353516" xlink:href="#DejaVuSans-32"/>
      <use x="544.140625" xlink:href="#DejaVuSans-112"/>
      <use x="607.617188" xlink:href="#DejaVuSans-111"/>
      <use x="668.798828" xlink:href="#DejaVuSans-115"/>
      <use x="720.898438" xlink:href="#DejaVuSans-105"/>
      <use x="748.681641" xlink:href="#DejaVuSans-116"/>
      <use x="787.890625" xlink:href="#DejaVuSans-105"/>
      <use x="815.673828" xlink:href="#DejaVuSans-111"/>
      <use x="876.855469" xlink:href="#DejaVuSans-110"/>
     </g>
    </g>
   </g>
   <g id="matplotlib.axis_2">
    <g id="ytick_1">
     <g id="line2d_6">
      <defs>
       <path d="M 0 0 
L -3.5 0 
" id="m51e9e1443b" style="stroke:#000000;stroke-width:0.8;"/>
      </defs>
      <g>
       <use style="stroke:#000000;stroke-width:0.8;" x="90" xlink:href="#m51e9e1443b" y="375.034909"/>
      </g>
     </g>
     <g id="text_7">
      <!-- −0.08 -->
      <g transform="translate(52.354687 378.834128)scale(0.1 -0.1)">
       <defs>
        <path d="M 10.59375 35.5 
L 73.1875 35.5 
L 73.1875 27.203125 
L 10.59375 27.203125 
z
" id="DejaVuSans-8722"/>
        <path d="M 10.6875 12.40625 
L 21 12.40625 
L 21 0 
L 10.6875 0 
z
" id="DejaVuSans-46"/>
        <path d="M 31.78125 34.625 
Q 24.75 34.625 20.71875 30.859375 
Q 16.703125 27.09375 16.703125 20.515625 
Q 16.703125 13.921875 20.71875 10.15625 
Q 24.75 6.390625 31.78125 6.390625 
Q 38.8125 6.390625 42.859375 10.171875 
Q 46.921875 13.96875 46.921875 20.515625 
Q 46.921875 27.09375 42.890625 30.859375 
Q 38.875 34.625 31.78125 34.625 
z
M 21.921875 38.8125 
Q 15.578125 40.375 12.03125 44.71875 
Q 8.5 49.078125 8.5 55.328125 
Q 8.5 64.0625 14.71875 69.140625 
Q 20.953125 74.21875 31.78125 74.21875 
Q 42.671875 74.21875 48.875 69.140625 
Q 55.078125 64.0625 55.078125 55.328125 
Q 55.078125 49.078125 51.53125 44.71875 
Q 48 40.375 41.703125 38.8125 
Q 48.828125 37.15625 52.796875 32.3125 
Q 56.78125 27.484375 56.78125 20.515625 
Q 56.78125 9.90625 50.3125 4.234375 
Q 43.84375 -1.421875 31.78125 -1.421875 
Q 19.734375 -1.421875 13.25 4.234375 
Q 6.78125 9.90625 6.78125 20.515625 
Q 6.78125 27.484375 10.78125 32.3125 
Q 14.796875 37.15625 21.921875 38.8125 
z
M 18.3125 54.390625 
Q 18.3125 48.734375 21.84375 45.5625 
Q 25.390625 42.390625 31.78125 42.390625 
Q 38.140625 42.390625 41.71875 45.5625 
Q 45.3125 48.734375 45.3125 54.390625 
Q 45.3125 60.0625 41.71875 63.234375 
Q 38.140625 66.40625 31.78125 66.40625 
Q 25.390625 66.40625 21.84375 63.234375 
Q 18.3125 60.0625 18.3125 54.390625 
z
" id="DejaVuSans-56"/>
       </defs>
       <use xlink:href="#DejaVuSans-8722"/>
       <use x="83.789062" xlink:href="#DejaVuSans-48"/>
       <use x="147.412109" xlink:href="#DejaVuSans-46"/>
       <use x="179.199219" xlink:href="#DejaVuSans-48"/>
       <use x="242.822266" xlink:href="#DejaVuSans-56"/>
      </g>
     </g>
    </g>
    <g id="ytick_2">
     <g id="line2d_7">
      <g>
       <use style="stroke:#000000;stroke-width:0.8;" x="90" xlink:href="#m51e9e1443b" y="315.733091"/>
      </g>
     </g>
     <g id="text_8">
      <!-- −0.07 -->
      <g transform="translate(52.354687 319.53231)scale(0.1 -0.1)">
       <defs>
        <path d="M 8.203125 72.90625 
L 55.078125 72.90625 
L 55.078125 68.703125 
L 28.609375 0 
L 18.3125 0 
L 43.21875 64.59375 
L 8.203125 64.59375 
z
" id="DejaVuSans-55"/>
       </defs>
       <use xlink:href="#DejaVuSans-8722"/>
       <use x="83.789062" xlink:href="#DejaVuSans-48"/>
       <use x="147.412109" xlink:href="#DejaVuSans-46"/>
       <use x="179.199219" xlink:href="#DejaVuSans-48"/>
       <use x="242.822266" xlink:href="#DejaVuSans-55"/>
      </g>
     </g>
    </g>
    <g id="ytick_3">
     <g id="line2d_8">
      <g>
       <use style="stroke:#000000;stroke-width:0.8;" x="90" xlink:href="#m51e9e1443b" y="256.431273"/>
      </g>
     </g>
     <g id="text_9">
      <!-- −0.06 -->
      <g transform="translate(52.354687 260.230491)scale(0.1 -0.1)">
       <defs>
        <path d="M 33.015625 40.375 
Q 26.375 40.375 22.484375 35.828125 
Q 18.609375 31.296875 18.609375 23.390625 
Q 18.609375 15.53125 22.484375 10.953125 
Q 26.375 6.390625 33.015625 6.390625 
Q 39.65625 6.390625 43.53125 10.953125 
Q 47.40625 15.53125 47.40625 23.390625 
Q 47.40625 31.296875 43.53125 35.828125 
Q 39.65625 40.375 33.015625 40.375 
z
M 52.59375 71.296875 
L 52.59375 62.3125 
Q 48.875 64.0625 45.09375 64.984375 
Q 41.3125 65.921875 37.59375 65.921875 
Q 27.828125 65.921875 22.671875 59.328125 
Q 17.53125 52.734375 16.796875 39.40625 
Q 19.671875 43.65625 24.015625 45.921875 
Q 28.375 48.1875 33.59375 48.1875 
Q 44.578125 48.1875 50.953125 41.515625 
Q 57.328125 34.859375 57.328125 23.390625 
Q 57.328125 12.15625 50.6875 5.359375 
Q 44.046875 -1.421875 33.015625 -1.421875 
Q 20.359375 -1.421875 13.671875 8.265625 
Q 6.984375 17.96875 6.984375 36.375 
Q 6.984375 53.65625 15.1875 63.9375 
Q 23.390625 74.21875 37.203125 74.21875 
Q 40.921875 74.21875 44.703125 73.484375 
Q 48.484375 72.75 52.59375 71.296875 
z
" id="DejaVuSans-54"/>
       </defs>
       <use xlink:href="#DejaVuSans-8722"/>
       <use x="83.789062" xlink:href="#DejaVuSans-48"/>
       <use x="147.412109" xlink:href="#DejaVuSans-46"/>
       <use x="179.199219" xlink:href="#DejaVuSans-48"/>
       <use x="242.822266" xlink:href="#DejaVuSans-54"/>
      </g>
     </g>
    </g>
    <g id="ytick_4">
     <g id="line2d_9">
      <g>
       <use style="stroke:#000000;stroke-width:0.8;" x="90" xlink:href="#m51e9e1443b" y="197.129455"/>
      </g>
     </g>
     <g id="text_10">
      <!-- −0.05 -->
      <g transform="translate(52.354687 200.928673)scale(0.1 -0.1)">
       <defs>
        <path d="M 10.796875 72.90625 
L 49.515625 72.90625 
L 49.515625 64.59375 
L 19.828125 64.59375 
L 19.828125 46.734375 
Q 21.96875 47.46875 24.109375 47.828125 
Q 26.265625 48.1875 28.421875 48.1875 
Q 40.625 48.1875 47.75 41.5 
Q 54.890625 34.8125 54.890625 23.390625 
Q 54.890625 11.625 47.5625 5.09375 
Q 40.234375 -1.421875 26.90625 -1.421875 
Q 22.3125 -1.421875 17.546875 -0.640625 
Q 12.796875 0.140625 7.71875 1.703125 
L 7.71875 11.625 
Q 12.109375 9.234375 16.796875 8.0625 
Q 21.484375 6.890625 26.703125 6.890625 
Q 35.15625 6.890625 40.078125 11.328125 
Q 45.015625 15.765625 45.015625 23.390625 
Q 45.015625 31 40.078125 35.4375 
Q 35.15625 39.890625 26.703125 39.890625 
Q 22.75 39.890625 18.8125 39.015625 
Q 14.890625 38.140625 10.796875 36.28125 
z
" id="DejaVuSans-53"/>
       </defs>
       <use xlink:href="#DejaVuSans-8722"/>
       <use x="83.789062" xlink:href="#DejaVuSans-48"/>
       <use x="147.412109" xlink:href="#DejaVuSans-46"/>
       <use x="179.199219" xlink:href="#DejaVuSans-48"/>
       <use x="242.822266" xlink:href="#DejaVuSans-53"/>
      </g>
     </g>
    </g>
    <g id="ytick_5">
     <g id="line2d_10">
      <g>
       <use style="stroke:#000000;stroke-width:0.8;" x="90" xlink:href="#m51e9e1443b" y="137.827636"/>
      </g>
     </g>
     <g id="text_11">
      <!-- −0.04 -->
      <g transform="translate(52.354687 141.626855)scale(0.1 -0.1)">
       <use xlink:href="#DejaVuSans-8722"/>
       <use x="83.789062" xlink:href="#DejaVuSans-48"/>
       <use x="147.412109" xlink:href="#DejaVuSans-46"/>
       <use x="179.199219" xlink:href="#DejaVuSans-48"/>
       <use x="242.822266" xlink:href="#DejaVuSans-52"/>
      </g>
     </g>
    </g>
    <g id="ytick_6">
     <g id="line2d_11">
      <g>
       <use style="stroke:#000000;stroke-width:0.8;" x="90" xlink:href="#m51e9e1443b" y="78.525818"/>
      </g>
     </g>
     <g id="text_12">
      <!-- −0.03 -->
      <g transform="translate(52.354687 82.325037)scale(0.1 -0.1)">
       <use xlink:href="#DejaVuSans-8722"/>
       <use x="83.789062" xlink:href="#DejaVuSans-48"/>
       <use x="147.412109" xlink:href="#DejaVuSans-46"/>
       <use x="179.199219" xlink:href="#DejaVuSans-48"/>
       <use x="242.822266" xlink:href="#DejaVuSans-51"/>
      </g>
     </g>
    </g>
    <g id="text_13">
     <!-- DOPE per-residue score -->
     <g transform="translate(46.275 273.715312)rotate(-90)scale(0.1 -0.1)">
      <defs>
       <path d="M 19.671875 64.796875 
L 19.671875 8.109375 
L 31.59375 8.109375 
Q 46.6875 8.109375 53.6875 14.9375 
Q 60.6875 21.78125 60.6875 36.53125 
Q 60.6875 51.171875 53.6875 57.984375 
Q 46.6875 64.796875 31.59375 64.796875 
z
M 9.8125 72.90625 
L 30.078125 72.90625 
Q 51.265625 72.90625 61.171875 64.09375 
Q 71.09375 55.28125 71.09375 36.53125 
Q 71.09375 17.671875 61.125 8.828125 
Q 51.171875 0 30.078125 0 
L 9.8125 0 
z
" id="DejaVuSans-68"/>
       <path d="M 39.40625 66.21875 
Q 28.65625 66.21875 22.328125 58.203125 
Q 16.015625 50.203125 16.015625 36.375 
Q 16.015625 22.609375 22.328125 14.59375 
Q 28.65625 6.59375 39.40625 6.59375 
Q 50.140625 6.59375 56.421875 14.59375 
Q 62.703125 22.609375 62.703125 36.375 
Q 62.703125 50.203125 56.421875 58.203125 
Q 50.140625 66.21875 39.40625 66.21875 
z
M 39.40625 74.21875 
Q 54.734375 74.21875 63.90625 63.9375 
Q 73.09375 53.65625 73.09375 36.375 
Q 73.09375 19.140625 63.90625 8.859375 
Q 54.734375 -1.421875 39.40625 -1.421875 
Q 24.03125 -1.421875 14.8125 8.828125 
Q 5.609375 19.09375 5.609375 36.375 
Q 5.609375 53.65625 14.8125 63.9375 
Q 24.03125 74.21875 39.40625 74.21875 
z
" id="DejaVuSans-79"/>
       <path d="M 19.671875 64.796875 
L 19.671875 37.40625 
L 32.078125 37.40625 
Q 38.96875 37.40625 42.71875 40.96875 
Q 46.484375 44.53125 46.484375 51.125 
Q 46.484375 57.671875 42.71875 61.234375 
Q 38.96875 64.796875 32.078125 64.796875 
z
M 9.8125 72.90625 
L 32.078125 72.90625 
Q 44.34375 72.90625 50.609375 67.359375 
Q 56.890625 61.8125 56.890625 51.125 
Q 56.890625 40.328125 50.609375 34.8125 
Q 44.34375 29.296875 32.078125 29.296875 
L 19.671875 29.296875 
L 19.671875 0 
L 9.8125 0 
z
" id="DejaVuSans-80"/>
       <path d="M 9.8125 72.90625 
L 55.90625 72.90625 
L 55.90625 64.59375 
L 19.671875 64.59375 
L 19.671875 43.015625 
L 54.390625 43.015625 
L 54.390625 34.71875 
L 19.671875 34.71875 
L 19.671875 8.296875 
L 56.78125 8.296875 
L 56.78125 0 
L 9.8125 0 
z
" id="DejaVuSans-69"/>
       <path d="M 41.109375 46.296875 
Q 39.59375 47.171875 37.8125 47.578125 
Q 36.03125 48 33.890625 48 
Q 26.265625 48 22.1875 43.046875 
Q 18.109375 38.09375 18.109375 28.8125 
L 18.109375 0 
L 9.078125 0 
L 9.078125 54.6875 
L 18.109375 54.6875 
L 18.109375 46.1875 
Q 20.953125 51.171875 25.484375 53.578125 
Q 30.03125 56 36.53125 56 
Q 37.453125 56 38.578125 55.875 
Q 39.703125 55.765625 41.0625 55.515625 
z
" id="DejaVuSans-114"/>
       <path d="M 4.890625 31.390625 
L 31.203125 31.390625 
L 31.203125 23.390625 
L 4.890625 23.390625 
z
" id="DejaVuSans-45"/>
       <path d="M 45.40625 46.390625 
L 45.40625 75.984375 
L 54.390625 75.984375 
L 54.390625 0 
L 45.40625 0 
L 45.40625 8.203125 
Q 42.578125 3.328125 38.25 0.953125 
Q 33.9375 -1.421875 27.875 -1.421875 
Q 17.96875 -1.421875 11.734375 6.484375 
Q 5.515625 14.40625 5.515625 27.296875 
Q 5.515625 40.1875 11.734375 48.09375 
Q 17.96875 56 27.875 56 
Q 33.9375 56 38.25 53.625 
Q 42.578125 51.265625 45.40625 46.390625 
z
M 14.796875 27.296875 
Q 14.796875 17.390625 18.875 11.75 
Q 22.953125 6.109375 30.078125 6.109375 
Q 37.203125 6.109375 41.296875 11.75 
Q 45.40625 17.390625 45.40625 27.296875 
Q 45.40625 37.203125 41.296875 42.84375 
Q 37.203125 48.484375 30.078125 48.484375 
Q 22.953125 48.484375 18.875 42.84375 
Q 14.796875 37.203125 14.796875 27.296875 
z
" id="DejaVuSans-100"/>
       <path d="M 8.5 21.578125 
L 8.5 54.6875 
L 17.484375 54.6875 
L 17.484375 21.921875 
Q 17.484375 14.15625 20.5 10.265625 
Q 23.53125 6.390625 29.59375 6.390625 
Q 36.859375 6.390625 41.078125 11.03125 
Q 45.3125 15.671875 45.3125 23.6875 
L 45.3125 54.6875 
L 54.296875 54.6875 
L 54.296875 0 
L 45.3125 0 
L 45.3125 8.40625 
Q 42.046875 3.421875 37.71875 1 
Q 33.40625 -1.421875 27.6875 -1.421875 
Q 18.265625 -1.421875 13.375 4.4375 
Q 8.5 10.296875 8.5 21.578125 
z
M 31.109375 56 
z
" id="DejaVuSans-117"/>
       <path d="M 48.78125 52.59375 
L 48.78125 44.1875 
Q 44.96875 46.296875 41.140625 47.34375 
Q 37.3125 48.390625 33.40625 48.390625 
Q 24.65625 48.390625 19.8125 42.84375 
Q 14.984375 37.3125 14.984375 27.296875 
Q 14.984375 17.28125 19.8125 11.734375 
Q 24.65625 6.203125 33.40625 6.203125 
Q 37.3125 6.203125 41.140625 7.25 
Q 44.96875 8.296875 48.78125 10.40625 
L 48.78125 2.09375 
Q 45.015625 0.34375 40.984375 -0.53125 
Q 36.96875 -1.421875 32.421875 -1.421875 
Q 20.0625 -1.421875 12.78125 6.34375 
Q 5.515625 14.109375 5.515625 27.296875 
Q 5.515625 40.671875 12.859375 48.328125 
Q 20.21875 56 33.015625 56 
Q 37.15625 56 41.109375 55.140625 
Q 45.0625 54.296875 48.78125 52.59375 
z
" id="DejaVuSans-99"/>
      </defs>
      <use xlink:href="#DejaVuSans-68"/>
      <use x="77.001953" xlink:href="#DejaVuSans-79"/>
      <use x="155.712891" xlink:href="#DejaVuSans-80"/>
      <use x="216.015625" xlink:href="#DejaVuSans-69"/>
      <use x="279.199219" xlink:href="#DejaVuSans-32"/>
      <use x="310.986328" xlink:href="#DejaVuSans-112"/>
      <use x="374.462891" xlink:href="#DejaVuSans-101"/>
      <use x="435.986328" xlink:href="#DejaVuSans-114"/>
      <use x="470.724609" xlink:href="#DejaVuSans-45"/>
      <use x="506.808594" xlink:href="#DejaVuSans-114"/>
      <use x="545.671875" xlink:href="#DejaVuSans-101"/>
      <use x="607.195312" xlink:href="#DejaVuSans-115"/>
      <use x="659.294922" xlink:href="#DejaVuSans-105"/>
      <use x="687.078125" xlink:href="#DejaVuSans-100"/>
      <use x="750.554688" xlink:href="#DejaVuSans-117"/>
      <use x="813.933594" xlink:href="#DejaVuSans-101"/>
      <use x="875.457031" xlink:href="#DejaVuSans-32"/>
      <use x="907.244141" xlink:href="#DejaVuSans-115"/>
      <use x="959.34375" xlink:href="#DejaVuSans-99"/>
      <use x="1014.324219" xlink:href="#DejaVuSans-111"/>
      <use x="1075.505859" xlink:href="#DejaVuSans-114"/>
      <use x="1114.369141" xlink:href="#DejaVuSans-101"/>
     </g>
    </g>
   </g>
   <g id="line2d_12">
    <path clip-path="url(#pbf0972a9c8)" d="M 115.363636 197.129455 
L 120.300597 197.129455 
L 121.534837 191.199273 
L 126.471798 238.640727 
L 127.706038 256.431273 
L 131.408759 292.012364 
L 133.87724 303.872727 
L 137.57996 286.082182 
L 138.8142 274.221818 
L 140.048441 268.291636 
L 142.516921 244.570909 
L 143.751161 244.570909 
L 147.453882 262.361455 
L 148.688122 256.431273 
L 149.922362 256.431273 
L 151.156603 250.501091 
L 152.390843 238.640727 
L 153.625083 220.850182 
L 156.093563 173.408727 
L 158.562044 137.827636 
L 161.030524 114.106909 
L 162.264764 108.176727 
L 163.499005 114.106909 
L 164.733245 114.106909 
L 167.201725 137.827636 
L 168.435965 143.757818 
L 169.670206 155.618182 
L 177.075647 155.618182 
L 178.309887 161.548364 
L 179.544127 173.408727 
L 180.778368 191.199273 
L 183.246848 203.059636 
L 184.481088 214.92 
L 186.949569 226.780364 
L 188.183809 226.780364 
L 189.418049 220.850182 
L 190.652289 220.850182 
L 191.88653 214.92 
L 193.12077 214.92 
L 194.35501 208.989818 
L 195.58925 197.129455 
L 198.057731 185.269091 
L 201.760451 185.269091 
L 202.994691 191.199273 
L 204.228932 203.059636 
L 205.463172 220.850182 
L 210.400133 268.291636 
L 211.634373 274.221818 
L 212.868613 274.221818 
L 215.337094 262.361455 
L 216.571334 250.501091 
L 217.805574 232.710545 
L 219.039814 220.850182 
L 220.274054 203.059636 
L 223.976775 167.478545 
L 225.211015 161.548364 
L 226.445255 167.478545 
L 227.679496 179.338909 
L 228.913736 185.269091 
L 231.382216 208.989818 
L 232.616457 214.92 
L 235.084937 214.92 
L 236.319177 203.059636 
L 237.553417 203.059636 
L 238.787658 191.199273 
L 240.021898 185.269091 
L 243.724618 185.269091 
L 244.958859 179.338909 
L 246.193099 167.478545 
L 247.427339 167.478545 
L 248.661579 161.548364 
L 249.89582 161.548364 
L 251.13006 155.618182 
L 252.3643 155.618182 
L 257.301261 179.338909 
L 258.535501 179.338909 
L 259.769741 185.269091 
L 261.003981 185.269091 
L 262.238222 191.199273 
L 263.472462 203.059636 
L 264.706702 208.989818 
L 265.940942 220.850182 
L 267.175182 238.640727 
L 269.643663 262.361455 
L 270.877903 268.291636 
L 272.112143 268.291636 
L 273.346384 274.221818 
L 274.580624 274.221818 
L 275.814864 268.291636 
L 277.049104 256.431273 
L 279.517585 244.570909 
L 288.157266 161.548364 
L 289.391506 143.757818 
L 290.625747 131.897455 
L 291.859987 114.106909 
L 293.094227 102.246545 
L 294.328467 96.316364 
L 295.562707 78.525818 
L 296.796948 72.595636 
L 298.031188 72.595636 
L 299.265428 66.665455 
L 300.499668 72.595636 
L 302.968149 72.595636 
L 304.202389 78.525818 
L 305.436629 78.525818 
L 306.670869 72.595636 
L 309.13935 72.595636 
L 310.37359 78.525818 
L 311.60783 90.386182 
L 312.84207 96.316364 
L 314.076311 114.106909 
L 316.544791 137.827636 
L 317.779031 143.757818 
L 319.013271 143.757818 
L 321.481752 131.897455 
L 322.715992 120.037091 
L 325.184472 120.037091 
L 326.418713 125.967273 
L 333.824154 197.129455 
L 336.292634 208.989818 
L 337.526875 208.989818 
L 338.761115 220.850182 
L 343.698076 244.570909 
L 344.932316 244.570909 
L 346.166556 250.501091 
L 347.400796 244.570909 
L 352.337757 244.570909 
L 353.571997 250.501091 
L 357.274718 250.501091 
L 359.743198 238.640727 
L 360.977439 226.780364 
L 362.211679 208.989818 
L 363.445919 203.059636 
L 364.680159 185.269091 
L 367.14864 161.548364 
L 368.38288 161.548364 
L 370.85136 173.408727 
L 372.085601 185.269091 
L 377.022561 208.989818 
L 378.256802 203.059636 
L 379.491042 203.059636 
L 380.725282 197.129455 
L 381.959522 203.059636 
L 386.896483 203.059636 
L 388.130723 197.129455 
L 389.364964 197.129455 
L 391.833444 185.269091 
L 393.067684 167.478545 
L 394.301924 155.618182 
L 396.770405 143.757818 
L 400.473125 143.757818 
L 407.878567 214.92 
L 410.347047 226.780364 
L 412.815528 226.780364 
L 415.284008 214.92 
L 416.518248 203.059636 
L 418.986729 191.199273 
L 420.220969 179.338909 
L 422.689449 179.338909 
L 426.39217 197.129455 
L 427.62641 214.92 
L 428.86065 226.780364 
L 430.094891 244.570909 
L 432.563371 268.291636 
L 433.797611 274.221818 
L 435.031851 274.221818 
L 436.266092 262.361455 
L 437.500332 256.431273 
L 441.203052 220.850182 
L 442.437293 214.92 
L 444.905773 214.92 
L 447.374253 226.780364 
L 451.076974 226.780364 
L 453.545455 203.059636 
L 456.013935 167.478545 
L 457.248175 155.618182 
L 458.482415 137.827636 
L 459.716656 125.967273 
L 462.185136 125.967273 
L 464.653616 137.827636 
L 465.887857 149.688 
L 468.356337 161.548364 
L 469.590577 155.618182 
L 470.824818 155.618182 
L 474.527538 137.827636 
L 476.996019 137.827636 
L 478.230259 149.688 
L 480.698739 161.548364 
L 481.932979 173.408727 
L 483.16722 179.338909 
L 486.86994 179.338909 
L 489.338421 167.478545 
L 490.572661 155.618182 
L 491.806901 149.688 
L 493.041141 149.688 
L 494.275382 155.618182 
L 497.978102 155.618182 
L 499.212342 167.478545 
L 500.446583 185.269091 
L 502.915063 197.129455 
L 504.149303 208.989818 
L 506.617784 268.291636 
L 507.852024 280.152 
L 509.086264 286.082182 
L 510.320504 286.082182 
L 511.554745 274.221818 
L 512.788985 268.291636 
L 514.023225 250.501091 
L 515.257465 220.850182 
L 516.491705 214.92 
L 517.725946 226.780364 
L 520.194426 274.221818 
L 523.897147 327.593455 
L 526.365627 339.453818 
L 527.599867 339.453818 
L 528.834107 333.523636 
L 530.068348 321.663273 
L 532.536828 309.802909 
L 533.771068 297.942545 
L 536.239549 262.361455 
L 537.473789 256.431273 
L 538.708029 274.221818 
L 541.17651 286.082182 
L 543.64499 321.663273 
L 544.87923 345.384 
L 546.11347 351.314182 
L 548.581951 327.593455 
L 551.050431 292.012364 
L 552.284672 268.291636 
L 553.518912 238.640727 
L 554.753152 232.710545 
L 555.987392 232.710545 
L 557.221632 238.640727 
L 558.455873 250.501091 
L 560.924353 262.361455 
L 562.158593 262.361455 
L 565.861314 226.780364 
L 568.329794 214.92 
L 569.564035 220.850182 
L 572.032515 292.012364 
L 573.266755 309.802909 
L 574.500995 333.523636 
L 575.735236 351.314182 
L 576.969476 363.174545 
L 578.203716 363.174545 
L 580.672196 351.314182 
L 581.906437 339.453818 
L 583.140677 315.733091 
L 584.374917 297.942545 
L 585.609157 274.221818 
L 586.843397 262.361455 
L 588.077638 232.710545 
L 589.311878 208.989818 
L 590.546118 208.989818 
L 591.780358 220.850182 
L 593.014599 238.640727 
L 595.483079 286.082182 
L 596.717319 303.872727 
L 597.951559 315.733091 
L 599.1858 315.733091 
L 600.42004 309.802909 
L 601.65428 286.082182 
L 602.88852 244.570909 
L 604.12276 208.989818 
L 605.357001 185.269091 
L 606.591241 167.478545 
L 607.825481 155.618182 
L 609.059721 131.897455 
L 610.293962 137.827636 
L 612.762442 185.269091 
L 613.996682 203.059636 
L 616.465163 226.780364 
L 617.699403 250.501091 
L 618.933643 256.431273 
L 620.167883 256.431273 
L 621.402123 250.501091 
L 622.636364 238.640727 
L 622.636364 238.640727 
" style="fill:none;stroke:#ff0000;stroke-linecap:square;stroke-width:2;"/>
   </g>
   <g id="line2d_13">
    <path clip-path="url(#pbf0972a9c8)" d="M 122.769078 286.082182 
L 124.003318 297.942545 
L 125.237558 303.872727 
L 126.471798 315.733091 
L 127.706038 321.663273 
L 130.174519 321.663273 
L 131.408759 333.523636 
L 133.87724 333.523636 
L 136.34572 321.663273 
L 137.57996 309.802909 
L 138.8142 303.872727 
L 142.516921 268.291636 
L 143.751161 262.361455 
L 146.219642 274.221818 
L 147.453882 274.221818 
L 148.688122 268.291636 
L 149.922362 268.291636 
L 151.156603 256.431273 
L 152.390843 250.501091 
L 154.859323 203.059636 
L 158.562044 149.688 
L 161.030524 125.967273 
L 162.264764 120.037091 
L 165.967485 137.827636 
L 167.201725 149.688 
L 170.904446 167.478545 
L 172.138686 161.548364 
L 173.372926 167.478545 
L 175.841407 167.478545 
L 178.309887 179.338909 
L 179.544127 197.129455 
L 182.012608 220.850182 
L 183.246848 226.780364 
L 184.481088 238.640727 
L 186.949569 250.501091 
L 188.183809 250.501091 
L 189.418049 244.570909 
L 191.88653 244.570909 
L 194.35501 232.710545 
L 195.58925 232.710545 
L 196.82349 220.850182 
L 202.994691 220.850182 
L 204.228932 226.780364 
L 205.463172 244.570909 
L 206.697412 250.501091 
L 209.165893 274.221818 
L 211.634373 286.082182 
L 212.868613 286.082182 
L 214.102853 280.152 
L 215.337094 280.152 
L 217.805574 256.431273 
L 219.039814 238.640727 
L 223.976775 191.199273 
L 225.211015 185.269091 
L 226.445255 185.269091 
L 227.679496 197.129455 
L 230.147976 208.989818 
L 231.382216 220.850182 
L 232.616457 226.780364 
L 235.084937 226.780364 
L 238.787658 208.989818 
L 241.256138 208.989818 
L 242.490378 214.92 
L 243.724618 208.989818 
L 244.958859 214.92 
L 248.661579 197.129455 
L 249.89582 197.129455 
L 252.3643 185.269091 
L 253.59854 185.269091 
L 256.067021 197.129455 
L 257.301261 197.129455 
L 258.535501 191.199273 
L 259.769741 197.129455 
L 261.003981 197.129455 
L 262.238222 203.059636 
L 265.940942 238.640727 
L 267.175182 262.361455 
L 268.409423 280.152 
L 269.643663 292.012364 
L 270.877903 297.942545 
L 274.580624 297.942545 
L 275.814864 292.012364 
L 279.517585 256.431273 
L 280.751825 250.501091 
L 281.986065 232.710545 
L 283.220305 226.780364 
L 284.454545 208.989818 
L 288.157266 173.408727 
L 289.391506 167.478545 
L 291.859987 143.757818 
L 293.094227 143.757818 
L 294.328467 155.618182 
L 298.031188 173.408727 
L 299.265428 185.269091 
M 310.37359 203.059636 
L 311.60783 214.92 
L 315.310551 214.92 
L 317.779031 203.059636 
L 319.013271 191.199273 
L 320.247512 173.408727 
L 322.715992 149.688 
L 323.950232 143.757818 
L 325.184472 143.757818 
L 326.418713 149.688 
L 327.652953 149.688 
L 332.589914 197.129455 
L 336.292634 214.92 
L 337.526875 214.92 
L 338.761115 232.710545 
L 346.166556 268.291636 
L 347.400796 256.431273 
L 348.635036 262.361455 
L 353.571997 262.361455 
L 354.806238 256.431273 
L 356.040478 256.431273 
L 358.508958 244.570909 
L 359.743198 226.780364 
L 360.977439 214.92 
L 362.211679 191.199273 
L 364.680159 167.478545 
L 365.914399 161.548364 
L 367.14864 161.548364 
L 368.38288 167.478545 
L 373.319841 214.92 
L 377.022561 214.92 
L 378.256802 208.989818 
L 379.491042 208.989818 
L 380.725282 203.059636 
L 383.193762 203.059636 
L 385.662243 214.92 
L 386.896483 214.92 
L 388.130723 208.989818 
L 389.364964 208.989818 
L 391.833444 197.129455 
L 395.536165 161.548364 
L 396.770405 155.618182 
L 398.004645 143.757818 
L 401.707366 143.757818 
L 404.175846 167.478545 
L 405.410086 173.408727 
L 406.644326 191.199273 
L 409.112807 214.92 
L 410.347047 220.850182 
L 411.581287 232.710545 
L 414.049768 232.710545 
L 416.518248 220.850182 
L 417.752488 220.850182 
L 418.986729 214.92 
L 420.220969 203.059636 
L 422.689449 203.059636 
L 426.39217 220.850182 
L 427.62641 238.640727 
L 428.86065 244.570909 
L 430.094891 256.431273 
L 431.329131 274.221818 
L 432.563371 280.152 
L 433.797611 292.012364 
L 437.500332 274.221818 
L 438.734572 256.431273 
L 439.968812 244.570909 
L 441.203052 238.640727 
L 442.437293 226.780364 
L 443.671533 232.710545 
L 444.905773 232.710545 
L 446.140013 238.640727 
L 447.374253 250.501091 
L 448.608494 256.431273 
L 451.076974 256.431273 
L 452.311214 250.501091 
L 453.545455 232.710545 
L 454.779695 220.850182 
L 456.013935 197.129455 
L 457.248175 179.338909 
L 458.482415 155.618182 
L 459.716656 143.757818 
L 460.950896 137.827636 
L 462.185136 137.827636 
L 463.419376 143.757818 
L 464.653616 143.757818 
L 465.887857 149.688 
L 467.122097 161.548364 
L 468.356337 161.548364 
L 473.293298 137.827636 
L 474.527538 137.827636 
L 475.761778 131.897455 
L 476.996019 137.827636 
L 478.230259 149.688 
L 479.464499 155.618182 
L 480.698739 173.408727 
L 483.16722 197.129455 
L 486.86994 214.92 
L 488.10418 214.92 
L 489.338421 220.850182 
L 490.572661 220.850182 
L 490.572661 220.850182 
" style="fill:none;stroke:#008000;stroke-linecap:square;stroke-width:2;"/>
   </g>
   <g id="patch_3">
    <path d="M 90 378 
L 90 51.84 
" style="fill:none;stroke:#000000;stroke-linecap:square;stroke-linejoin:miter;stroke-width:0.8;"/>
   </g>
   <g id="patch_4">
    <path d="M 648 378 
L 648 51.84 
" style="fill:none;stroke:#000000;stroke-linecap:square;stroke-linejoin:miter;stroke-width:0.8;"/>
   </g>
   <g id="patch_5">
    <path d="M 90 378 
L 648 378 
" style="fill:none;stroke:#000000;stroke-linecap:square;stroke-linejoin:miter;stroke-width:0.8;"/>
   </g>
   <g id="patch_6">
    <path d="M 90 51.84 
L 648 51.84 
" style="fill:none;stroke:#000000;stroke-linecap:square;stroke-linejoin:miter;stroke-width:0.8;"/>
   </g>
   <g id="legend_1">
    <g id="patch_7">
     <path d="M 563.370312 89.19625 
L 641 89.19625 
Q 643 89.19625 643 87.19625 
L 643 58.84 
Q 643 56.84 641 56.84 
L 563.370312 56.84 
Q 561.370312 56.84 561.370312 58.84 
L 561.370312 87.19625 
Q 561.370312 89.19625 563.370312 89.19625 
z
" style="fill:#ffffff;opacity:0.8;stroke:#cccccc;stroke-linejoin:miter;"/>
    </g>
    <g id="line2d_14">
     <path d="M 565.370312 64.938437 
L 585.370312 64.938437 
" style="fill:none;stroke:#ff0000;stroke-linecap:square;stroke-width:2;"/>
    </g>
    <g id="line2d_15"/>
    <g id="text_14">
     <!-- Model -->
     <g transform="translate(593.370312 68.438437)scale(0.1 -0.1)">
      <defs>
       <path d="M 9.8125 72.90625 
L 24.515625 72.90625 
L 43.109375 23.296875 
L 61.8125 72.90625 
L 76.515625 72.90625 
L 76.515625 0 
L 66.890625 0 
L 66.890625 64.015625 
L 48.09375 14.015625 
L 38.1875 14.015625 
L 19.390625 64.015625 
L 19.390625 0 
L 9.8125 0 
z
" id="DejaVuSans-77"/>
      </defs>
      <use xlink:href="#DejaVuSans-77"/>
      <use x="86.279297" xlink:href="#DejaVuSans-111"/>
      <use x="147.460938" xlink:href="#DejaVuSans-100"/>
      <use x="210.9375" xlink:href="#DejaVuSans-101"/>
      <use x="272.460938" xlink:href="#DejaVuSans-108"/>
     </g>
    </g>
    <g id="line2d_16">
     <path d="M 565.370312 79.616562 
L 585.370312 79.616562 
" style="fill:none;stroke:#008000;stroke-linecap:square;stroke-width:2;"/>
    </g>
    <g id="line2d_17"/>
    <g id="text_15">
     <!-- Template -->
     <g transform="translate(593.370312 83.116562)scale(0.1 -0.1)">
      <defs>
       <path d="M -0.296875 72.90625 
L 61.375 72.90625 
L 61.375 64.59375 
L 35.5 64.59375 
L 35.5 0 
L 25.59375 0 
L 25.59375 64.59375 
L -0.296875 64.59375 
z
" id="DejaVuSans-84"/>
       <path d="M 34.28125 27.484375 
Q 23.390625 27.484375 19.1875 25 
Q 14.984375 22.515625 14.984375 16.5 
Q 14.984375 11.71875 18.140625 8.90625 
Q 21.296875 6.109375 26.703125 6.109375 
Q 34.1875 6.109375 38.703125 11.40625 
Q 43.21875 16.703125 43.21875 25.484375 
L 43.21875 27.484375 
z
M 52.203125 31.203125 
L 52.203125 0 
L 43.21875 0 
L 43.21875 8.296875 
Q 40.140625 3.328125 35.546875 0.953125 
Q 30.953125 -1.421875 24.3125 -1.421875 
Q 15.921875 -1.421875 10.953125 3.296875 
Q 6 8.015625 6 15.921875 
Q 6 25.140625 12.171875 29.828125 
Q 18.359375 34.515625 30.609375 34.515625 
L 43.21875 34.515625 
L 43.21875 35.40625 
Q 43.21875 41.609375 39.140625 45 
Q 35.0625 48.390625 27.6875 48.390625 
Q 23 48.390625 18.546875 47.265625 
Q 14.109375 46.140625 10.015625 43.890625 
L 10.015625 52.203125 
Q 14.9375 54.109375 19.578125 55.046875 
Q 24.21875 56 28.609375 56 
Q 40.484375 56 46.34375 49.84375 
Q 52.203125 43.703125 52.203125 31.203125 
z
" id="DejaVuSans-97"/>
      </defs>
      <use xlink:href="#DejaVuSans-84"/>
      <use x="44.083984" xlink:href="#DejaVuSans-101"/>
      <use x="105.607422" xlink:href="#DejaVuSans-109"/>
      <use x="203.019531" xlink:href="#DejaVuSans-112"/>
      <use x="266.496094" xlink:href="#DejaVuSans-108"/>
      <use x="294.279297" xlink:href="#DejaVuSans-97"/>
      <use x="355.558594" xlink:href="#DejaVuSans-116"/>
      <use x="394.767578" xlink:href="#DejaVuSans-101"/>
     </g>
    </g>
   </g>
  </g>
 </g>
 <defs>
  <clipPath id="pbf0972a9c8">
   <rect height="326.16" width="558" x="90" y="51.84"/>
  </clipPath>
 </defs>
</svg>
